<?xml version="1.0" encoding="UTF-8"?>
<!-- Generated by @neplex/vectorizer (Using visioncortex VTracer) -->
<svg version="1.1" xmlns="http://www.w3.org/2000/svg" width="256" height="256">
<path d="M0 0 C48.51 0 97.02 0 147 0 C147.33 0.66 147.66 1.32 148 2 C148.99 2.33 149.98 2.66 151 3 C151.33 4.32 151.66 5.64 152 7 C153.98 7.99 153.98 7.99 156 9 C156 9.66 156 10.32 156 11 C157.98 11.99 157.98 11.99 160 13 C160 13.66 160 14.32 160 15 C161.98 15.99 161.98 15.99 164 17 C164 17.66 164 18.32 164 19 C165.98 19.99 165.98 19.99 168 21 C168 21.66 168 22.32 168 23 C169.98 23.99 169.98 23.99 172 25 C172 25.66 172 26.32 172 27 C175.33167 26.26418 175.33167 26.26418 176.8125 22.75 C179.14375 18.75357 181.41804 16.86557 185 14 C187.02657 11.68971 189.02838 9.35737 191 7 C193.25 4.5625 193.25 4.5625 195 3 C195.66 3 196.32 3 197 3 C197 2.01 197 1.02 197 0 C204.59 0 212.18 0 220 0 C220 1.65 220 3.3 220 5 C218.68 5.66 217.36 6.32 216 7 C213.98561 9.32092 211.98688 11.65548 210 14 C208 15.66667 206 17.33333 204 19 C203.01 20.155 202.02 21.31 201 22.5 C198.19817 25.7688 195.34367 28.31052 192 31 C191.27812 31.7425 190.55625 32.485 189.8125 33.25 C188 35 188 35 185 36 C184.67 36.99 184.34 37.98 184 39 C185.32 39.66 186.64 40.32 188 41 C188 41.66 188 42.32 188 43 C189.32 43.66 190.64 44.32 192 45 C192 45.66 192 46.32 192 47 C193.32 47.33 194.64 47.66 196 48 C196.33 49.98 196.66 51.96 197 54 C197.99 54 198.98 54 200 54 C201.50741 91.68531 201.09025 129.34898 201.0625 167.0625 C201.05348 182.89348 201.04445 198.72445 201.03516 215.03516 C201.01775 233.33275 201.01775 233.33275 201 252 C201.66 252 202.32 252 203 252 C202.9768 251.28715 202.95359 250.5743 202.92969 249.83984 C202.74364 239.96612 203.92533 234.34677 211 227 C212.97387 225.30247 214.97138 223.63171 217 222 C219.66888 219.54752 220.84521 218.46436 222 215 C223.32 215 224.64 215 226 215 C226 222.59 226 230.18 226 238 C225.34 238 224.68 238 224 238 C223.34 239.32 222.68 240.64 222 242 C220.00744 243.67556 218.00631 245.34094 216 247 C214.89446 248.25156 213.81085 249.52284 212.75 250.8125 C211.38875 252.39031 211.38875 252.39031 210 254 C209.34 254 208.68 254 208 254 C208 254.66 208 255.32 208 256 C137.66667 256 67.33333 256 -3 256 C-4.34334 215.69988 -4.13139 175.44746 -4.125 135.125 C-4.12758 118.87508 -4.13016 102.62516 -4.13281 85.88281 C-4.04724 58.25276 -3.69054 30.62155 -3 3 C-2.01 3 -1.02 3 0 3 C0 2.01 0 1.02 0 0 Z M176 28 C176.33 28.99 176.66 29.98 177 31 C177.66 31 178.32 31 179 31 C178.67 30.01 178.34 29.02 178 28 C177.34 28 176.68 28 176 28 Z M180 32 C180.33 32.99 180.66 33.98 181 35 C181.66 35 182.32 35 183 35 C182.67 34.01 182.34 33.02 182 32 C181.34 32 180.68 32 180 32 Z " fill="#E8E8C4" transform="translate(30,0)"/>
<path d="M0 0 C48.51 0 97.02 0 147 0 C147.33 0.66 147.66 1.32 148 2 C148.99 2.33 149.98 2.66 151 3 C151.33 4.32 151.66 5.64 152 7 C153.98 7.99 153.98 7.99 156 9 C156 9.66 156 10.32 156 11 C157.98 11.99 157.98 11.99 160 13 C160 13.66 160 14.32 160 15 C161.98 15.99 161.98 15.99 164 17 C164 17.66 164 18.32 164 19 C165.98 19.99 165.98 19.99 168 21 C168 21.66 168 22.32 168 23 C169.98 23.99 169.98 23.99 172 25 C172 25.66 172 26.32 172 27 C175.33167 26.26418 175.33167 26.26418 176.8125 22.75 C179.14375 18.75357 181.41804 16.86557 185 14 C187.02657 11.68971 189.02838 9.35737 191 7 C193.25 4.5625 193.25 4.5625 195 3 C195.66 3 196.32 3 197 3 C197 2.01 197 1.02 197 0 C204.59 0 212.18 0 220 0 C220 1.65 220 3.3 220 5 C218.68 5.66 217.36 6.32 216 7 C213.98561 9.32092 211.98688 11.65548 210 14 C208 15.66667 206 17.33333 204 19 C203.01 20.155 202.02 21.31 201 22.5 C198.19817 25.7688 195.34367 28.31052 192 31 C191.27812 31.7425 190.55625 32.485 189.8125 33.25 C188 35 188 35 185 36 C184.67 36.99 184.34 37.98 184 39 C185.32 39.66 186.64 40.32 188 41 C188 41.66 188 42.32 188 43 C189.32 43.66 190.64 44.32 192 45 C192 45.66 192 46.32 192 47 C193.32 47.33 194.64 47.66 196 48 C196.33 49.98 196.66 51.96 197 54 C197.99 54 198.98 54 200 54 C201.50741 91.68531 201.09025 129.34898 201.0625 167.0625 C201.05348 182.89348 201.04445 198.72445 201.03516 215.03516 C201.01775 233.33275 201.01775 233.33275 201 252 C201.66 252 202.32 252 203 252 C202.9768 251.28715 202.95359 250.5743 202.92969 249.83984 C202.74364 239.96612 203.92533 234.34677 211 227 C212.97387 225.30247 214.97138 223.63171 217 222 C219.66888 219.54752 220.84521 218.46436 222 215 C223.32 215 224.64 215 226 215 C226 222.59 226 230.18 226 238 C225.34 238 224.68 238 224 238 C223.34 239.32 222.68 240.64 222 242 C220.00744 243.67556 218.00631 245.34094 216 247 C214.89446 248.25156 213.81085 249.52284 212.75 250.8125 C211.38875 252.39031 211.38875 252.39031 210 254 C209.34 254 208.68 254 208 254 C208 254.66 208 255.32 208 256 C137.66667 256 67.33333 256 -3 256 C-4.34334 215.69988 -4.13139 175.44746 -4.125 135.125 C-4.12758 118.87508 -4.13016 102.62516 -4.13281 85.88281 C-4.04724 58.25276 -3.69054 30.62155 -3 3 C-2.01 3 -1.02 3 0 3 C0 2.01 0 1.02 0 0 Z M6 11 C5.75144 37.87398 5.7035 64.74991 5.75 91.625 C5.76547 106.52914 5.78094 121.43328 5.79688 136.78906 C2.16342 156.66306 2.16342 156.66306 7 173 C37.52075 173.07427 68.04167 173.08336 98.5625 173.0625 C115.53816 173.05348 132.51383 173.04445 150.00391 173.03516 C163.20262 173.02355 176.40133 173.01195 190 173 C190.05361 154.70836 190.09261 136.41669 190.125 118.125 C190.1482 107.93883 190.17141 97.75266 190.19531 87.25781 C192.16761 72.84279 192.16761 72.84279 188 61 C179.4595 60.85305 170.91666 60.83292 162.375 60.875 C157.65961 60.89305 152.94422 60.91109 148.08594 60.92969 C144.42758 60.95289 140.76922 60.97609 137 61 C137.52566 67.31484 137.52566 67.31484 139 70 C139.49602 75.32542 139.90094 80.65511 140.30469 85.98828 C141.01238 91.54864 141.01238 91.54864 144 96 C147.62599 96.41726 147.62599 96.41726 151 96 C153 100 153 100 154 104 C153.31938 104.10313 152.63875 104.20625 151.9375 104.3125 C145.93198 105.71805 142.39456 107.60544 138 112 C137.46859 119.515 137.49839 126.97138 137.46875 134.50391 C137.31406 136.64762 137.15938 138.79133 137 141 C131.91213 144.8159 129.22827 144.59025 123 145 C123.495 141.04 123.495 141.04 124 137 C124.96938 137.02062 125.93875 137.04125 126.9375 137.0625 C129.87466 137.35618 129.87466 137.35618 131 136 C131.2486 130.16249 131.38506 124.32547 131.52344 118.48438 C132 113 132 113 135 108 C135.38528 102.99131 135.2688 100.53759 133 96 C132.34 95.67 131.68 95.34 131 95 C130.505 82.13 130.505 82.13 130 69 C128.02 68.01 126.04 67.02 124 66 C124 64.02 124 62.04 124 60 C125.62937 60.02063 127.25875 60.04125 128.9375 60.0625 C130.62499 60.08386 132.31391 60.07206 134 60 C136.72186 57.27814 135.08409 52.3568 135.13281 48.50781 C135.13023 44.09148 135.12766 39.67516 135.125 35.125 C135.12758 30.71383 135.13016 26.30266 135.13281 21.75781 C135.56052 12.17408 135.56052 12.17408 134 8 C113.22923 7.91957 92.45837 7.86108 71.6875 7.8125 C54.33736 7.76029 54.33736 7.76029 36.63672 7.70703 C19.81449 5.77658 19.81449 5.77658 6 11 Z M176 28 C176.33 28.99 176.66 29.98 177 31 C177.66 31 178.32 31 179 31 C178.67 30.01 178.34 29.02 178 28 C177.34 28 176.68 28 176 28 Z M180 32 C180.33 32.99 180.66 33.98 181 35 C181.66 35 182.32 35 183 35 C182.67 34.01 182.34 33.02 182 32 C181.34 32 180.68 32 180 32 Z " fill="#030302" transform="translate(30,0)"/>
<path d="M0 0 C16.20094 0.01418 32.40188 0.02836 49.09375 0.04297 C65.29469 0.04941 81.49563 0.05586 98.1875 0.0625 C136.59375 0.23047 136.59375 0.23047 138.59375 1.23047 C138.59375 22.02047 138.59375 42.81047 138.59375 64.23047 C132.30368 67.3755 52.05702 65.47869 50.21875 65.48047 C26.23059 65.51914 26.23059 65.51914 1.75781 65.55859 C-36.40625 65.23047 -36.40625 65.23047 -40.40625 62.23047 C-40.75212 52.21483 -40.83277 42.18945 -40.78125 32.16797 C-40.76836 26.64949 -40.75547 21.13102 -40.74219 15.44531 C-40.06059 -11.36676 -38.58584 0.23155 0 0 Z " fill="#9677A7" transform="translate(78.40625,181.76953125)"/>
<path d="M0 0 C1.48693 0.00387 1.48693 0.00387 3.00391 0.00781 C3.99262 0.00523 4.98133 0.00266 6 0 C8.56641 0.13281 8.56641 0.13281 10.56641 1.13281 C10.56641 1.79281 10.56641 2.45281 10.56641 3.13281 C11.92766 3.22563 11.92766 3.22563 13.31641 3.32031 C17.44855 4.35335 18.26557 5.60487 20.56641 9.13281 C21.60088 10.66809 21.60088 10.66809 22.65625 12.23438 C24.9497 16.91507 25.06813 20.19391 25.00391 25.38281 C25.00262 26.95547 25.00133 28.52812 25 30.14844 C24.56641 34.13281 24.56641 34.13281 21.56641 37.13281 C21.13328 38.10219 20.70016 39.07156 20.25391 40.07031 C18.23768 43.72938 16.0778 44.96621 12.56641 47.13281 C11.90641 48.12281 11.24641 49.11281 10.56641 50.13281 C-5.52515 53.30273 -27.35654 53.45473 -43.43359 50.13281 C-44.42359 49.14281 -45.41359 48.15281 -46.43359 47.13281 C-46.43359 46.47281 -46.43359 45.81281 -46.43359 45.13281 C-47.09359 45.13281 -47.75359 45.13281 -48.43359 45.13281 C-48.10359 43.48281 -47.77359 41.83281 -47.43359 40.13281 C-39.51359 39.63781 -39.51359 39.63781 -31.43359 39.13281 C-31.43359 37.15281 -31.43359 35.17281 -31.43359 33.13281 C-33.46218 30.76123 -33.46218 30.76123 -37.43359 30.13281 C-37.43359 29.47281 -37.43359 28.81281 -37.43359 28.13281 C-38.09359 28.13281 -38.75359 28.13281 -39.43359 28.13281 C-39.43359 27.47281 -39.43359 26.81281 -39.43359 26.13281 C-40.09359 26.13281 -40.75359 26.13281 -41.43359 26.13281 C-45.43359 21.66222 -45.43359 21.66222 -45.43359 19.13281 C-46.42359 19.13281 -47.41359 19.13281 -48.43359 19.13281 C-48.72063 14.39674 -48.85728 11.02906 -46.80859 6.69531 C-43.44166 3.06257 -40.81762 2.3039 -35.92969 1.95312 C-28.9764 1.77094 -28.9764 1.77094 -25.43359 4.13281 C-25.43359 5.78281 -25.43359 7.43281 -25.43359 9.13281 C-27.9401 9.29557 -30.44661 9.45833 -32.95312 9.62109 C-35.82764 9.9772 -35.82764 9.9772 -38.43359 13.13281 C-38.82851 15.66996 -38.82851 15.66996 -37.43359 18.13281 C-33.71754 20.36631 -33.71754 20.36631 -29.43359 22.13281 C-23.64788 24.70424 -23.64788 24.70424 -21.43359 29.13281 C-20.77359 29.46281 -20.11359 29.79281 -19.43359 30.13281 C-19.39621 29.16859 -19.35883 28.20437 -19.32031 27.21094 C-19.25457 25.94766 -19.18883 24.68437 -19.12109 23.38281 C-19.06309 22.12984 -19.00508 20.87687 -18.94531 19.58594 C-18.43359 16.13281 -18.43359 16.13281 -15.43359 12.13281 C-15.10359 10.81281 -14.77359 9.49281 -14.43359 8.13281 C-12.78359 7.80281 -11.13359 7.47281 -9.43359 7.13281 C-9.10359 6.14281 -8.77359 5.15281 -8.43359 4.13281 C-5.93359 2.50781 -5.93359 2.50781 -3.43359 1.13281 C-2.43359 0.13281 -2.43359 0.13281 0 0 Z " fill="#9A7BAB" transform="translate(137.43359375,191.8671875)"/>
<path d="M0 0 C17.35014 0.05221 17.35014 0.05221 35.05078 0.10547 C46.62527 0.13254 58.19977 0.15961 70.125 0.1875 C83.60795 0.23971 83.60795 0.23971 97.36328 0.29297 C100.00856 8.2288 98.49305 19.26046 98.48828 27.41797 C98.49086 31.8343 98.49344 36.25062 98.49609 40.80078 C98.36328 51.29297 98.36328 51.29297 97.36328 52.29297 C94.0271 52.43554 90.70353 52.33525 87.36328 52.29297 C87.36328 54.27297 87.36328 56.25297 87.36328 58.29297 C89.01328 58.95297 90.66328 59.61297 92.36328 60.29297 C92.36328 60.62297 92.36328 60.95297 92.36328 61.29297 C90.05328 61.29297 87.74328 61.29297 85.36328 61.29297 C83.89393 56.88491 84.24419 52.9374 84.36328 48.29297 C85.36328 47.29297 85.36328 47.29297 89.23828 47.16797 C93.36328 47.29297 93.36328 47.29297 96.36328 48.29297 C96.36328 33.44297 96.36328 18.59297 96.36328 3.29297 C76.23821 3.40613 56.11322 3.53377 35.98828 3.66797 C24.78117 3.73758 13.57406 3.80719 2.02734 3.87891 C-13.70831 1.77033 -13.70831 1.77033 -26.63672 6.29297 C-26.9509 32.50025 -27.13632 58.70911 -27.26172 84.91797 C-27.38547 110.78172 -27.50922 136.64547 -27.63672 163.29297 C30.44328 163.29297 88.52328 163.29297 148.36328 163.29297 C148.36328 128.64297 148.36328 93.99297 148.36328 58.29297 C133.84328 58.29297 119.32328 58.29297 104.36328 58.29297 C105.02328 59.28297 105.68328 60.27297 106.36328 61.29297 C106.64071 64.95393 106.81349 68.62323 106.92578 72.29297 C106.95589 79.40925 106.95589 79.40925 108.36328 86.29297 C111.66328 86.95297 114.96328 87.61297 118.36328 88.29297 C118.65625 95.8125 118.65625 95.8125 118.36328 98.29297 C115.36328 101.29297 115.36328 101.29297 110.67578 101.48047 C109.25266 101.41859 107.82953 101.35672 106.36328 101.29297 C106.3259 103.14922 106.28852 105.00547 106.25 106.91797 C106.15139 110.56859 106.15139 110.56859 106.05078 114.29297 C105.99277 116.70609 105.93477 119.11922 105.875 121.60547 C105.43797 127.31687 104.92237 131.23558 102.36328 136.29297 C98.86743 138.62354 96.88645 138.69994 92.73828 138.98047 C91.57039 139.06684 90.4025 139.1532 89.19922 139.24219 C88.26336 139.25895 87.3275 139.2757 86.36328 139.29297 C85.36328 138.29297 85.36328 138.29297 85.30078 133.73047 C85.32141 132.26609 85.34203 130.80172 85.36328 129.29297 C88.82828 128.30297 88.82828 128.30297 92.36328 127.29297 C92.40066 125.69066 92.43805 124.08836 92.47656 122.4375 C92.5423 120.34793 92.60805 118.25836 92.67578 116.10547 C92.73379 114.02879 92.7918 111.95211 92.85156 109.8125 C93.36328 104.29297 93.36328 104.29297 96.36328 99.29297 C97.02328 98.96297 97.68328 98.63297 98.36328 98.29297 C97.37328 100.27297 97.37328 100.27297 96.36328 102.29297 C94.17742 108.85055 94.88088 116.40707 94.64453 123.26953 C94.36328 128.29297 94.36328 128.29297 93.36328 129.29297 C91.3637 129.33378 89.36283 129.33551 87.36328 129.29297 C86.86828 133.25297 86.86828 133.25297 86.36328 137.29297 C87.93078 137.18984 89.49828 137.08672 91.11328 136.98047 C91.995 136.92246 92.87672 136.86445 93.78516 136.80469 C96.83021 136.39357 96.83021 136.39357 100.36328 133.29297 C100.86248 125.85448 100.80056 118.47358 100.79688 111.01953 C101.36328 104.29297 101.36328 104.29297 106.36328 99.29297 C109.95529 97.7963 113.5376 96.96809 117.36328 96.29297 C117.05391 95.52984 116.74453 94.76672 116.42578 93.98047 C115.68435 92.10507 115.001 90.20612 114.36328 88.29297 C113.27016 88.39609 112.17703 88.49922 111.05078 88.60547 C107.36328 88.29297 107.36328 88.29297 105.69922 86.42969 C103.78217 81.92854 103.65078 77.65902 103.30078 72.79297 C102.77795 64.80841 102.77795 64.80841 100.36328 57.29297 C100.36328 55.97297 100.36328 54.65297 100.36328 53.29297 C108.82155 53.23932 117.27991 53.20034 125.73828 53.16797 C132.80363 53.13316 132.80363 53.13316 140.01172 53.09766 C151.36328 53.29297 151.36328 53.29297 153.36328 55.29297 C153.51122 73.66742 153.53014 92.04297 153.48828 110.41797 C153.47023 120.6093 153.45219 130.80062 153.43359 141.30078 C153.41039 149.2182 153.38719 157.13563 153.36328 165.29297 C122.88412 165.31976 92.40495 165.33927 61.92578 165.35547 C36.46615 165.37287 36.46615 165.37287 10.49219 165.39062 C-29.63672 165.29297 -29.63672 165.29297 -30.63672 164.29297 C-30.79127 137.50162 -30.85891 110.70975 -30.88672 83.91797 C-30.9125 69.01898 -30.93828 54.12 -30.96484 38.76953 C-30.60926 0.32448 -30.60926 0.32448 0 0 Z " fill="#BDBDA0" transform="translate(66.63671875,7.70703125)"/>
<path d="M0 0 C0.99 0.33 1.98 0.66 3 1 C3 17.5 3 34 3 51 C8.7041 50.9652 8.7041 50.9652 14.52344 50.92969 C19.42445 50.91164 24.32547 50.89359 29.375 50.875 C36.71879 50.8402 36.71879 50.8402 44.21094 50.80469 C56 51 56 51 58 53 C58.17464 71.68679 58.21307 90.37491 58.1875 109.0625 C58.17783 124.61053 58.17783 124.61053 58.16797 140.47266 C58 165 58 165 57 166 C26.14592 166.07428 -4.70833 166.08336 -35.5625 166.0625 C-61.30443 166.04896 -61.30443 166.04896 -87.56641 166.03516 C-100.90949 166.02355 -114.25258 166.01195 -128 166 C-127.505 165.01 -127.505 165.01 -127 164 C-66.61 164.33 -6.22 164.66 56 165 C55.85563 146.87062 55.71125 128.74125 55.5625 110.0625 C55.48129 99.86473 55.40008 89.66695 55.31641 79.16016 C57.57242 65.35055 57.57242 65.35055 54 54 C45.48047 53.76047 36.95914 53.58406 28.4375 53.4375 C23.71309 53.35371 18.98867 53.26992 14.12109 53.18359 C10.45113 53.12301 6.78117 53.06242 3 53 C3.99 55.97 4.98 58.94 6 62 C6.44498 65.59408 6.79734 69.20069 7.0625 72.8125 C7.51171 80.185 7.51171 80.185 10 87 C12.33248 87.33927 14.66585 87.6724 17 88 C20 92 20 92 20 96 C19.31938 96.26812 18.63875 96.53625 17.9375 96.8125 C16.96812 97.20437 15.99875 97.59625 15 98 C13.80375 98.47437 12.6075 98.94875 11.375 99.4375 C7.79663 100.85877 7.79663 100.85877 5 104 C4.61403 111.46353 4.62364 118.89821 4.60156 126.37109 C4.40305 128.55863 4.20453 130.74617 4 133 C-2.15461 137.92369 -3.55685 137.39697 -11 137 C-10.505 133.04 -10.505 133.04 -10 129 C-8.02 128.67 -6.04 128.34 -4 128 C-3.96262 126.3977 -3.92523 124.79539 -3.88672 123.14453 C-3.82098 121.05496 -3.75523 118.96539 -3.6875 116.8125 C-3.62949 114.73582 -3.57148 112.65914 -3.51172 110.51953 C-3 105 -3 105 0 100 C0.24536 95.95151 0.28436 92.85309 -1 89 C-2.485 88.01 -2.485 88.01 -4 87 C-4.37965 82.63548 -4.5812 78.25471 -4.6875 73.875 C-4.75324 71.47992 -4.81898 69.08484 -4.88672 66.61719 C-4.94279 63.83668 -4.94279 63.83668 -5 61 C-6.65 60.34 -8.3 59.68 -10 59 C-11 58 -11 58 -11.125 55 C-11 52 -11 52 -10 51 C-6.7 51 -3.4 51 0 51 C0 34.17 0 17.34 0 0 Z " fill="#292922" transform="translate(164,8)"/>
<path d="M0 0 C3.8189 6.20572 5.15169 11.05953 5.1875 18.25 C5.20168 19.53391 5.21586 20.81781 5.23047 22.14062 C4.99772 26.03819 4.21245 29.30036 3 33 C2.34 33 1.68 33 1 33 C0.34 34.32 -0.32 35.64 -1 37 C-6.02711 40.51898 -11.07324 40.52599 -17 40 C-20.99639 39.29096 -23.2201 38.69324 -26.25 36 C-31.86183 26.37972 -31.92151 16.1841 -29.74609 5.45703 C-28.63084 1.78429 -27.16844 0.13526 -24 -2 C-14.97533 -5.05674 -8.33799 -4.83362 0 0 Z " fill="#F1ECF3" transform="translate(153,198)"/>
<path d="M0 0 C0.94875 0.04125 1.8975 0.0825 2.875 0.125 C6.66096 7.69693 5.09315 16.96365 5.0625 25.25 C5.05605 29.08883 5.04961 32.92766 5.04297 36.88281 C4.875 46.125 4.875 46.125 3.875 48.125 C0.75 48.625 0.75 48.625 -3.125 48.125 C-7.21493 43.64922 -9.4756 39.96135 -11.125 34.125 C-13.19991 29.37561 -13.19991 29.37561 -17.125 26.125 C-17.785 25.135 -18.445 24.145 -19.125 23.125 C-19.455 30.715 -19.785 38.305 -20.125 46.125 C-25.125 47.125 -25.125 47.125 -28.125 46.125 C-28.17866 39.00008 -28.21763 31.87505 -28.25 24.75 C-28.2732 20.78227 -28.29641 16.81453 -28.32031 12.72656 C-28.125 3.125 -28.125 3.125 -26.125 1.125 C-24.475 1.125 -22.825 1.125 -21.125 1.125 C-21.125 1.785 -21.125 2.445 -21.125 3.125 C-19.805 3.785 -18.485 4.445 -17.125 5.125 C-16.07147 7.43466 -15.06781 9.76798 -14.125 12.125 C-13.465 12.455 -12.805 12.785 -12.125 13.125 C-11.85688 14.21812 -11.58875 15.31125 -11.3125 16.4375 C-9.95813 20.64318 -8.59882 21.59096 -5.125 24.125 C-5.1482 22.56008 -5.17141 20.99516 -5.19531 19.38281 C-5.21336 17.35898 -5.23141 15.33516 -5.25 13.25 C-5.2732 11.23133 -5.29641 9.21266 -5.32031 7.13281 C-5.05 0.202 -5.05 0.202 0 0 Z " fill="#F9F8FA" transform="translate(197.125,191.875)"/>
<path d="M0 0 C0.66 0.99 1.32 1.98 2 3 C1.67 4.32 1.34 5.64 1 7 C-0.49273 7.81211 -0.49273 7.81211 -2.01562 8.64062 C-5.49164 10.84397 -5.49164 10.84397 -5.73438 15.48438 C-5.73953 17.22203 -5.74469 18.95969 -5.75 20.75 C-5.89458 36.89458 -5.89458 36.89458 -9 40 C-9.63756 44.35663 -9.13091 45.81656 -6.52734 49.46484 C-3.32742 55.20691 -3.29893 59.46271 -3.1875 66 C-3.1398 68.0625 -3.09211 70.125 -3.04297 72.25 C-3.02879 73.8175 -3.01461 75.385 -3 77 C-2.03063 77.47438 -1.06125 77.94875 -0.0625 78.4375 C3 80 3 80 4 81 C4.3125 83.875 4.3125 83.875 4 87 C0 90 0 90 -4 90 C-4 89.34 -4 88.68 -4 88 C-5.63969 87.72156 -5.63969 87.72156 -7.3125 87.4375 C-11 86 -11 86 -12.65625 83.28125 C-14.55404 77.23479 -14.79467 71.37794 -15.1875 65.0625 C-15.34605 62.61973 -15.50461 60.17695 -15.66797 57.66016 C-15.77754 55.7923 -15.88711 53.92445 -16 52 C-17.44375 51.38125 -18.8875 50.7625 -20.375 50.125 C-25 48 -25 48 -27 46 C-27 41 -27 41 -25 39 C-22.34071 38.30449 -19.67399 37.63666 -17 37 C-13.89959 33.89959 -15.72372 22.34523 -15.67188 18.09375 C-14.89272 11.02702 -13.11008 5.56581 -7.5 0.9375 C-5 0 -5 0 0 0 Z " fill="#0C0B0C" transform="translate(96,58)"/>
<path d="M0 0 C17.35014 0.05221 17.35014 0.05221 35.05078 0.10547 C46.62527 0.13254 58.19977 0.15961 70.125 0.1875 C83.60795 0.23971 83.60795 0.23971 97.36328 0.29297 C97.36328 0.62297 97.36328 0.95297 97.36328 1.29297 C88.43523 1.34195 79.50719 1.39094 70.30859 1.44141 C53.07254 1.55355 53.07254 1.55355 35.48828 1.66797 C18.25996 1.77238 18.25996 1.77238 0.68359 1.87891 C-15.41213 -0.30688 -15.41213 -0.30688 -28.63672 4.29297 C-28.78493 30.83425 -28.80352 57.3763 -28.76172 83.91797 C-28.72047 110.11172 -28.67922 136.30547 -28.63672 163.29297 C30.10328 163.29297 88.84328 163.29297 149.36328 163.29297 C149.85828 110.82297 149.85828 110.82297 150.36328 57.29297 C134.52328 56.96297 118.68328 56.63297 102.36328 56.29297 C102.03328 57.61297 101.70328 58.93297 101.36328 60.29297 C101.03328 57.98297 100.70328 55.67297 100.36328 53.29297 C108.82155 53.23932 117.27991 53.20034 125.73828 53.16797 C132.80363 53.13316 132.80363 53.13316 140.01172 53.09766 C151.36328 53.29297 151.36328 53.29297 153.36328 55.29297 C153.51122 73.66742 153.53014 92.04297 153.48828 110.41797 C153.47023 120.6093 153.45219 130.80062 153.43359 141.30078 C153.41039 149.2182 153.38719 157.13563 153.36328 165.29297 C122.88412 165.31976 92.40495 165.33927 61.92578 165.35547 C36.46615 165.37287 36.46615 165.37287 10.49219 165.39062 C-29.63672 165.29297 -29.63672 165.29297 -30.63672 164.29297 C-30.79127 137.50162 -30.85891 110.70975 -30.88672 83.91797 C-30.9125 69.01898 -30.93828 54.12 -30.96484 38.76953 C-30.60926 0.32448 -30.60926 0.32448 0 0 Z " fill="#616152" transform="translate(66.63671875,7.70703125)"/>
<path d="M0 0 C16.21898 0.0232 32.43797 0.04641 49.14844 0.07031 C73.48465 0.09738 73.48465 0.09738 98.3125 0.125 C110.92211 0.1482 123.53172 0.17141 136.52344 0.19531 C136.52344 0.52531 136.52344 0.85531 136.52344 1.19531 C79.43344 1.52531 22.34344 1.85531 -36.47656 2.19531 C-36.47656 21.66531 -36.47656 41.13531 -36.47656 61.19531 C49.65344 61.69031 49.65344 61.69031 137.52344 62.19531 C137.52344 42.06531 137.52344 21.93531 137.52344 1.19531 C137.85344 1.19531 138.18344 1.19531 138.52344 1.19531 C138.52344 21.98531 138.52344 42.77531 138.52344 64.19531 C132.23337 67.34035 51.98671 65.44353 50.14844 65.44531 C26.16027 65.48398 26.16027 65.48398 1.6875 65.52344 C-36.47656 65.19531 -36.47656 65.19531 -40.47656 62.19531 C-40.82243 52.17967 -40.90309 42.15429 -40.85156 32.13281 C-40.83867 26.61434 -40.82578 21.09586 -40.8125 15.41016 C-40.13027 -11.427 -38.64156 0.19615 0 0 Z " fill="#70587C" transform="translate(78.4765625,181.8046875)"/>
<path d="M0 0 C24.71906 0.00773 24.71906 0.00773 49.9375 0.01562 C66.41688 0.01047 82.89625 0.00531 99.875 0 C138.9375 0.26562 138.9375 0.26562 140.9375 2.26562 C141.08487 13.30639 141.10448 24.34896 141.0625 35.39062 C141.04445 41.4982 141.02641 47.60578 141.00781 53.89844 C140.98461 58.63961 140.96141 63.38078 140.9375 68.26562 C134.65455 71.4071 53.96436 69.51391 52.1875 69.51562 C36.12578 69.54141 20.06406 69.56719 3.51562 69.59375 C-35.0625 69.26562 -35.0625 69.26562 -41.0625 66.26562 C-41.11613 55.64068 -41.15512 45.01566 -41.1875 34.39062 C-41.2107 28.47383 -41.23391 22.55703 -41.25781 16.46094 C-40.87252 -11.54223 -39.93343 0.27155 0 0 Z M-39.0625 4.26562 C-39.31612 14.24235 -39.41419 24.2232 -39.4375 34.20312 C-39.46586 39.71902 -39.49422 45.23492 -39.52344 50.91797 C-39.37133 55.3227 -39.21922 59.72742 -39.0625 64.26562 C-28.04019 72.53236 41.51156 67.53183 51.5625 67.51562 C67.55977 67.50016 83.55703 67.48469 100.03906 67.46875 C120.69054 69.80674 120.69054 69.80674 139.9375 66.26562 C139.9375 45.47562 139.9375 24.68562 139.9375 3.26562 C133.70554 0.14964 52.12443 2.0788 50.4375 2.07812 C34.23656 2.06395 18.03562 2.04977 1.34375 2.03516 C-20.83471 -1.57831 -20.83471 -1.57831 -39.0625 4.26562 Z " fill="#3E3044" transform="translate(77.0625,179.734375)"/>
<path d="M0 0 C7.59 0 15.18 0 23 0 C23 1.65 23 3.3 23 5 C21.02 5.99 21.02 5.99 19 7 C16.98561 9.32092 14.98688 11.65548 13 14 C11 15.66667 9 17.33333 7 19 C6.01 20.155 5.02 21.31 4 22.5 C1.19817 25.7688 -1.65633 28.31052 -5 31 C-5.68062 31.72188 -6.36125 32.44375 -7.0625 33.1875 C-9.23976 35.22429 -11.19127 36.06376 -14 37 C-14.33 35.68 -14.66 34.36 -15 33 C-16.32 32.67 -17.64 32.34 -19 32 C-19 31.01 -19 30.02 -19 29 C-20.32 28.34 -21.64 27.68 -23 27 C-19.81699 21.47653 -17.02921 18.00284 -12 14 C-9.97343 11.68971 -7.97162 9.35737 -6 7 C-3.75 4.5625 -3.75 4.5625 -2 3 C-1.34 3 -0.68 3 0 3 C0 2.01 0 1.02 0 0 Z " fill="#303030" transform="translate(227,0)"/>
<path d="M0 0 C7.42188 0.09766 7.42188 0.09766 10 1 C14.73763 6.83715 14.52325 12.50992 14.625 19.8125 C14.10808 27.0294 14.10808 27.0294 17 33 C17 33.99 17 34.98 17 36 C18.42312 36.10313 19.84625 36.20625 21.3125 36.3125 C26 37 26 37 29 40 C29 40.99 29 41.98 29 43 C26.37262 44.93189 23.98312 46.0054 20.875 47 C17.69087 47.87357 17.69087 47.87357 15 51 C14.61403 58.46353 14.62364 65.89821 14.60156 73.37109 C14.40305 75.55863 14.20453 77.74617 14 80 C7.84539 84.92369 6.44315 84.39697 -1 84 C-0.67 81.36 -0.34 78.72 0 76 C2.97 75.505 2.97 75.505 6 75 C6.02578 73.4209 6.05156 71.8418 6.07812 70.21484 C6.13484 68.14332 6.19156 66.0718 6.25 63.9375 C6.29641 61.88402 6.34281 59.83055 6.39062 57.71484 C6.97672 52.21836 7.7611 49.38956 11 45 C11.99 44.505 11.99 44.505 13 44 C12.61588 40.73496 12.1742 39.19832 9.96875 36.6875 C6.8986 30.93707 7.62731 25.566 7.75 19.125 C7.78609 16.6732 7.82219 14.22141 7.85938 11.69531 C7.92898 8.87613 7.92898 8.87613 8 6 C4.10847 3.87346 4.10847 3.87346 0 3 C0 2.01 0 1.02 0 0 Z " fill="#0A090A" transform="translate(154,61)"/>
<path d="M0 0 C1.65 0 3.3 0 5 0 C7.08264 2.25988 9.07541 4.60409 11 7 C12.98457 8.68501 14.98089 10.35654 17 12 C17.33 12.66 17.66 13.32 18 14 C18.84562 14.495 19.69125 14.99 20.5625 15.5 C21.36687 15.995 22.17125 16.49 23 17 C23 17.66 23 18.32 23 19 C24.32 19.66 25.64 20.32 27 21 C28.5 23.5 28.5 23.5 30 26 C31.32 26.66 32.64 27.32 34 28 C34 29.32 34 30.64 34 32 C28.70844 32.05369 23.41673 32.09265 18.125 32.125 C13.7048 32.1598 13.7048 32.1598 9.19531 32.19531 C2 32 2 32 0 30 C-0.14566 24.96027 -0.16737 19.91666 -0.125 14.875 C-0.10695 12.10867 -0.08891 9.34234 -0.07031 6.49219 C-0.04711 4.34977 -0.02391 2.20734 0 0 Z " fill="#D5CD9A" transform="translate(174,21)"/>
<path d="M0 0 C16.79326 0.05221 16.79326 0.05221 33.92578 0.10547 C50.73064 0.14607 50.73064 0.14607 67.875 0.1875 C80.92482 0.23971 80.92482 0.23971 94.23828 0.29297 C93.90828 0.95297 93.57828 1.61297 93.23828 2.29297 C84.82007 3.696 75.55064 4.37106 67.23828 2.29297 C56.92515 2.38403 46.61257 2.54103 36.30078 2.73047 C-7.83544 3.52454 -7.83544 3.52454 -12.76172 2.29297 C-17.38172 2.62297 -22.00172 2.95297 -26.76172 3.29297 C-26.75012 11.69379 -26.73852 20.09461 -26.72656 28.75 C-26.71754 39.7573 -26.70852 50.76461 -26.69922 62.10547 C-26.68762 73.02254 -26.67602 83.93961 -26.66406 95.1875 C-26.73457 116.92458 -26.96662 138.57493 -27.76172 160.29297 C-28.42172 160.29297 -29.08172 160.29297 -29.76172 160.29297 C-29.84213 134.18885 -29.90063 108.08467 -29.94922 81.98047 C-29.98402 67.44371 -30.01883 52.90695 -30.05469 37.92969 C-29.73662 0.32554 -29.73662 0.32554 0 0 Z " fill="#D6D6B5" transform="translate(68.76171875,10.70703125)"/>
<path d="M0 0 C0 1.65 0 3.3 0 5 C-2.50651 5.16276 -5.01302 5.32552 -7.51953 5.48828 C-10.39404 5.84439 -10.39404 5.84439 -13 9 C-12.71263 11.87368 -11.91403 14.2579 -11 17 C-9.68 17.66 -8.36 18.32 -7 19 C-0.25581 22.48837 -0.25581 22.48837 2 27 C2.28756 32.77323 1.96917 38.1655 -0.75 43.3125 C-6.0009 46.03893 -11.21662 45.81895 -17 45 C-20.8125 43 -20.8125 43 -23 41 C-22.67 39.35 -22.34 37.7 -22 36 C-14.08 35.505 -14.08 35.505 -6 35 C-6 33.02 -6 31.04 -6 29 C-8.02858 26.62842 -8.02858 26.62842 -12 26 C-12 25.34 -12 24.68 -12 24 C-12.66 24 -13.32 24 -14 24 C-14 23.34 -14 22.68 -14 22 C-14.66 22 -15.32 22 -16 22 C-20 17.52941 -20 17.52941 -20 15 C-20.99 15 -21.98 15 -23 15 C-23.28703 10.26393 -23.42368 6.89625 -21.375 2.5625 C-16.23226 -2.98625 -6.3342 -4.2228 0 0 Z " fill="#EBE5EE" transform="translate(112,196)"/>
<path d="M0 0 C1.32 0 2.64 0 4 0 C4 7.59 4 15.18 4 23 C3.34 23 2.68 23 2 23 C1.34 24.32 0.68 25.64 0 27 C-1.99256 28.67556 -3.99369 30.34094 -6 32 C-7.10554 33.25156 -8.18915 34.52284 -9.25 35.8125 C-10.1575 36.86437 -11.065 37.91625 -12 39 C-12.66 39 -13.32 39 -14 39 C-14 39.66 -14 40.32 -14 41 C-17.8125 41.1875 -17.8125 41.1875 -22 41 C-22.99 40.01 -23.98 39.02 -25 38 C-24.01 38 -23.02 38 -22 38 C-22 33.71 -22 29.42 -22 25 C-21.67 25 -21.34 25 -21 25 C-21 28.96 -21 32.92 -21 37 C-20.34 37 -19.68 37 -19 37 C-19.0232 36.28715 -19.04641 35.5743 -19.07031 34.83984 C-19.25636 24.96612 -18.07467 19.34677 -11 12 C-9.02613 10.30247 -7.02862 8.63171 -5 7 C-2.33112 4.54752 -1.15479 3.46436 0 0 Z " fill="#373737" transform="translate(252,215)"/>
<path d="M0 0 C0.18986 3.66465 0.32517 7.33215 0.4375 11 C0.51871 13.04188 0.59992 15.08375 0.68359 17.1875 C-0.3959 26.36631 -6.10869 30.48695 -13 36 C-15.66888 38.45248 -16.84521 39.53564 -18 43 C-19.65 43 -21.3 43 -23 43 C-23 35.41 -23 27.82 -23 20 C-22.01 20 -21.02 20 -20 20 C-19.34 18.68 -18.68 17.36 -18 16 C-16.00744 14.32444 -14.00631 12.65906 -12 11 C-9.97343 8.68971 -7.97162 6.35737 -6 4 C-2.30769 0 -2.30769 0 0 0 Z " fill="#313131" transform="translate(23,207)"/>
<path d="M0 0 C3.5 0.125 3.5 0.125 4.5 1.125 C4.68053 7.74836 4.76833 14.37433 4.8125 21 C4.84988 24.66867 4.88727 28.33734 4.92578 32.11719 C4.78527 35.08977 4.64477 38.06234 4.5 41.125 C0.5 44.125 0.5 44.125 -1.5 44.125 C-2.16 45.445 -2.82 46.765 -3.5 48.125 C-17.13326 48.86304 -17.13326 48.86304 -23.5 44.125 C-23.17 42.475 -22.84 40.825 -22.5 39.125 C-14.085 38.63 -14.085 38.63 -5.5 38.125 C-5.43941 35.46566 -5.37883 32.80633 -5.31641 30.06641 C-5.23262 26.64137 -5.14883 23.21633 -5.0625 19.6875 C-4.94068 14.55381 -4.94068 14.55381 -4.81641 9.31641 C-4.4627 0.15938 -4.4627 0.15938 0 0 Z " fill="#E5DDE9" transform="translate(75.5,191.875)"/>
<path d="M0 0 C0.18986 3.66465 0.32517 7.33215 0.4375 11 C0.51871 13.04188 0.59992 15.08375 0.68359 17.1875 C-0.3959 26.36631 -6.10869 30.48695 -13 36 C-15.66888 38.45248 -16.84521 39.53564 -18 43 C-19.65 43 -21.3 43 -23 43 C-23 35.41 -23 27.82 -23 20 C-22.01 20 -21.02 20 -20 20 C-19.34 18.68 -18.68 17.36 -18 16 C-16.00744 14.32444 -14.00631 12.65906 -12 11 C-9.97343 8.68971 -7.97162 6.35737 -6 4 C-2.30769 0 -2.30769 0 0 0 Z " fill="#313131" transform="translate(23,127)"/>
<path d="M0 0 C0.18986 3.66465 0.32517 7.33215 0.4375 11 C0.51871 13.04188 0.59992 15.08375 0.68359 17.1875 C-0.3959 26.36631 -6.10869 30.48695 -13 36 C-15.66888 38.45248 -16.84521 39.53564 -18 43 C-19.65 43 -21.3 43 -23 43 C-23 35.41 -23 27.82 -23 20 C-22.01 20 -21.02 20 -20 20 C-19.34 18.68 -18.68 17.36 -18 16 C-16.00744 14.32444 -14.00631 12.65906 -12 11 C-9.97343 8.68971 -7.97162 6.35737 -6 4 C-2.30769 0 -2.30769 0 0 0 Z " fill="#313131" transform="translate(23,47)"/>
<path d="M0 0 C1.32 0 2.64 0 4 0 C4 7.59 4 15.18 4 23 C3.34 23 2.68 23 2 23 C1.34 24.32 0.68 25.64 0 27 C-1.99256 28.67556 -3.99369 30.34094 -6 32 C-8.02657 34.31029 -10.02838 36.64263 -12 39 C-14.25 41.4375 -14.25 41.4375 -16 43 C-16.66 43 -17.32 43 -18 43 C-19.62919 39.74163 -19.21258 36.42003 -19.25 32.8125 C-19.28867 30.59467 -19.28867 30.59467 -19.32812 28.33203 C-18.84726 21.98341 -17.41392 18.28053 -12.6875 14 C-11.47063 13.01 -10.25375 12.02 -9 11 C-7.86883 9.75314 -6.76344 8.48232 -5.6875 7.1875 C-3 4 -3 4 -1 3 C-0.67 2.01 -0.34 1.02 0 0 Z " fill="#363636" transform="translate(252,55)"/>
<path d="M0 0 C1.32 0 2.64 0 4 0 C4 7.59 4 15.18 4 23 C3.34 23 2.68 23 2 23 C1.34 24.32 0.68 25.64 0 27 C-1.99256 28.67556 -3.99369 30.34094 -6 32 C-8.02657 34.31029 -10.02838 36.64263 -12 39 C-14.25 41.4375 -14.25 41.4375 -16 43 C-16.66 43 -17.32 43 -18 43 C-19.23313 39.30061 -19.20649 36.15108 -19.25 32.25 C-19.27578 30.87328 -19.30156 29.49656 -19.32812 28.07812 C-18.82858 21.86951 -17.30729 18.18396 -12.6875 14 C-11.47063 13.01 -10.25375 12.02 -9 11 C-7.86883 9.75314 -6.76344 8.48232 -5.6875 7.1875 C-3 4 -3 4 -1 3 C-0.67 2.01 -0.34 1.02 0 0 Z " fill="#363636" transform="translate(252,135)"/>
<path d="M0 0 C0 0.66 0 1.32 0 2 C2.475 2.99 2.475 2.99 5 4 C5 5.32 5 6.64 5 8 C5.66 8 6.32 8 7 8 C7.47233 16.48884 7.08227 22.47332 3 30 C-7.01933 30.62189 -7.01933 30.62189 -10.5625 28.375 C-14.44593 21.95889 -14.69724 15.36206 -14 8 C-10.62335 1.2467 -7.54089 -0.59144 0 0 Z " fill="#9676A7" transform="translate(144,202)"/>
<path d="M0 0 C24.20666 0.0174 24.20666 0.0174 48.90234 0.03516 C73.11287 0.04869 73.11287 0.04869 97.8125 0.0625 C116.63604 0.0799 116.63604 0.0799 135.83984 0.09766 C135.83984 20.22766 135.83984 40.35766 135.83984 61.09766 C135.50984 61.09766 135.17984 61.09766 134.83984 61.09766 C134.50984 41.95766 134.17984 22.81766 133.83984 3.09766 C77.07984 2.76766 20.31984 2.43766 -38.16016 2.09766 C-38.16016 21.23766 -38.16016 40.37766 -38.16016 60.09766 C-38.49016 60.09766 -38.82016 60.09766 -39.16016 60.09766 C-39.18696 50.28517 -39.20646 40.47266 -39.22266 30.66016 C-39.23426 25.19582 -39.24586 19.73148 -39.25781 14.10156 C-39.15267 0.1002 -39.15267 0.1002 0 0 Z " fill="#846893" transform="translate(80.16015625,182.90234375)"/>
<path d="M0 0 C0.94875 0.04125 1.8975 0.0825 2.875 0.125 C6.66096 7.69693 5.09315 16.96365 5.0625 25.25 C5.05605 29.08883 5.04961 32.92766 5.04297 36.88281 C4.875 46.125 4.875 46.125 3.875 48.125 C1.565 48.125 -0.745 48.125 -3.125 48.125 C-3.785 46.805 -4.445 45.485 -5.125 44.125 C-2.485 44.785 0.155 45.445 2.875 46.125 C2.875 32.595 2.875 19.065 2.875 5.125 C1.885 5.455 0.895 5.785 -0.125 6.125 C-0.455 14.375 -0.785 22.625 -1.125 31.125 C-3.79167 30.45833 -6.45833 29.79167 -9.125 29.125 C-9.39312 28.03188 -9.66125 26.93875 -9.9375 25.8125 C-10.8852 21.90849 -10.8852 21.90849 -14.125 19.125 C-15.48761 16.36654 -16.65413 13.55553 -17.84375 10.71875 C-19.09723 7.83196 -19.09723 7.83196 -22.125 5.125 C-23.445 5.125 -24.765 5.125 -26.125 5.125 C-26.125 17.995 -26.125 30.865 -26.125 44.125 C-24.805 44.125 -23.485 44.125 -22.125 44.125 C-22.06441 42.48789 -22.00383 40.85078 -21.94141 39.16406 C-21.85762 37.04742 -21.77383 34.93078 -21.6875 32.75 C-21.60629 30.63852 -21.52508 28.52703 -21.44141 26.35156 C-21.125 21.125 -21.125 21.125 -20.125 19.125 C-19.135 19.125 -18.145 19.125 -17.125 19.125 C-17.00125 20.54812 -17.00125 20.54812 -16.875 22 C-16.6275 23.03125 -16.38 24.0625 -16.125 25.125 C-14.805 25.785 -13.485 26.445 -12.125 27.125 C-10.5625 29.8125 -10.5625 29.8125 -9.125 33.125 C-8.56813 34.34188 -8.01125 35.55875 -7.4375 36.8125 C-6.125 40.125 -6.125 40.125 -6.125 43.125 C-9.32651 39.92349 -9.80738 38.32492 -11.125 34.125 C-13.19991 29.37561 -13.19991 29.37561 -17.125 26.125 C-17.785 25.135 -18.445 24.145 -19.125 23.125 C-19.455 30.715 -19.785 38.305 -20.125 46.125 C-25.125 47.125 -25.125 47.125 -28.125 46.125 C-28.17866 39.00008 -28.21763 31.87505 -28.25 24.75 C-28.2732 20.78227 -28.29641 16.81453 -28.32031 12.72656 C-28.125 3.125 -28.125 3.125 -26.125 1.125 C-24.475 1.125 -22.825 1.125 -21.125 1.125 C-21.125 1.785 -21.125 2.445 -21.125 3.125 C-19.805 3.785 -18.485 4.445 -17.125 5.125 C-16.07147 7.43466 -15.06781 9.76798 -14.125 12.125 C-13.465 12.455 -12.805 12.785 -12.125 13.125 C-11.85688 14.21812 -11.58875 15.31125 -11.3125 16.4375 C-9.95813 20.64318 -8.59882 21.59096 -5.125 24.125 C-5.1482 22.56008 -5.17141 20.99516 -5.19531 19.38281 C-5.21336 17.35898 -5.23141 15.33516 -5.25 13.25 C-5.2732 11.23133 -5.29641 9.21266 -5.32031 7.13281 C-5.05 0.202 -5.05 0.202 0 0 Z " fill="#D6CADC" transform="translate(197.125,191.875)"/>
<path d="M0 0 C11.47395 0.0348 22.94789 0.06961 34.76953 0.10547 C51.99205 0.14607 51.99205 0.14607 69.5625 0.1875 C78.47895 0.2223 87.39539 0.25711 96.58203 0.29297 C99.5119 6.15271 97.71054 20.32817 97.70703 26.35547 C97.70961 30.78082 97.71219 35.20617 97.71484 39.76562 C97.58203 50.29297 97.58203 50.29297 96.58203 51.29297 C93.24585 51.43554 89.92228 51.33525 86.58203 51.29297 C86.58203 53.27297 86.58203 55.25297 86.58203 57.29297 C88.23203 57.95297 89.88203 58.61297 91.58203 59.29297 C91.58203 59.62297 91.58203 59.95297 91.58203 60.29297 C89.27203 60.29297 86.96203 60.29297 84.58203 60.29297 C83.11268 55.88491 83.46294 51.9374 83.58203 47.29297 C84.58203 46.29297 84.58203 46.29297 88.45703 46.16797 C92.58203 46.29297 92.58203 46.29297 95.58203 47.29297 C95.58203 32.11297 95.58203 16.93297 95.58203 1.29297 C75.2903 1.40613 54.99864 1.53377 34.70703 1.66797 C23.40711 1.73758 12.10719 1.80719 0.46484 1.87891 C-15.39084 -0.25541 -15.39084 -0.25541 -28.41797 4.29297 C-28.73216 30.66692 -28.91757 57.04244 -29.04297 83.41797 C-29.11773 98.0643 -29.1925 112.71062 -29.26953 127.80078 C-29.31852 139.1832 -29.3675 150.56563 -29.41797 162.29297 C-29.74797 162.29297 -30.07797 162.29297 -30.41797 162.29297 C-30.49838 135.85552 -30.55688 109.418 -30.60547 82.98047 C-30.64027 68.25809 -30.67508 53.5357 -30.71094 38.36719 C-30.39318 0.32476 -30.39318 0.32476 0 0 Z " fill="#8F8F79" transform="translate(67.41796875,8.70703125)"/>
<path d="M0 0 C0.99 0.33 1.98 0.66 3 1 C3.33 17.5 3.66 34 4 51 C28.75 51.495 28.75 51.495 54 52 C54 52.33 54 52.66 54 53 C37.17 53 20.34 53 3 53 C3.99 55.97 4.98 58.94 6 62 C6.44498 65.59408 6.79734 69.20069 7.0625 72.8125 C7.51171 80.185 7.51171 80.185 10 87 C12.33248 87.33927 14.66585 87.6724 17 88 C17.99 89.32 18.98 90.64 20 92 C19.67 93.32 19.34 94.64 19 96 C18.69063 95.21625 18.38125 94.4325 18.0625 93.625 C16.06847 90.51657 16.06847 90.51657 11.5 90 C7 89 7 89 5.25 87.15625 C2.67394 80.6517 3.51144 73.25111 3.40625 66.34375 C3.04245 61.55837 2.81822 59.65768 0 56 C0 55.34 0 54.68 0 54 C-3.3 53.67 -6.6 53.34 -10 53 C-10 53.99 -10 54.98 -10 56 C-8.85531 56.18563 -8.85531 56.18563 -7.6875 56.375 C-5 57 -5 57 -2 59 C-1.60796 65.8334 -1.62356 72.63655 -1.60156 79.48047 C-0.9984 86.01737 -0.17266 88.19511 4 93 C3.8125 95.9375 3.8125 95.9375 3 98 C2.34 98 1.68 98 1 98 C0.73188 96.55625 0.46375 95.1125 0.1875 93.625 C-0.48727 88.8594 -0.48727 88.8594 -4 87 C-4.37965 82.63548 -4.5812 78.25471 -4.6875 73.875 C-4.75324 71.47992 -4.81898 69.08484 -4.88672 66.61719 C-4.94279 63.83668 -4.94279 63.83668 -5 61 C-6.65 60.34 -8.3 59.68 -10 59 C-11 58 -11 58 -11.125 55 C-11 52 -11 52 -10 51 C-6.7 51 -3.4 51 0 51 C0 34.17 0 17.34 0 0 Z " fill="#43413C" transform="translate(164,8)"/>
<path d="M0 0 C3.06565 1.53283 3.64181 3.9293 5 7 C5.33333 8.66667 5.66667 10.33333 6 12 C6.99 12.495 6.99 12.495 8 13 C9.02688 15.32163 10.02362 17.65669 11 20 C11.55687 20.92812 12.11375 21.85625 12.6875 22.8125 C14 25 14 25 14 27 C17.33586 28.66793 20.93676 28.36983 24.625 28.5625 C26.18477 28.64629 27.74453 28.73008 29.35156 28.81641 C30.55555 28.87699 31.75953 28.93758 33 29 C33 29.33 33 29.66 33 30 C-22.77 30 -78.54 30 -136 30 C-136 29.67 -136 29.34 -136 29 C-91.45 29 -46.9 29 -1 29 C-0.67 19.43 -0.34 9.86 0 0 Z " fill="#9171A2" transform="translate(178,214)"/>
<path d="M0 0 C16.77586 0.0232 33.55172 0.04641 50.83594 0.07031 C67.61695 0.08836 84.39797 0.10641 101.6875 0.125 C114.73023 0.1482 127.77297 0.17141 141.21094 0.19531 C146.00566 9.78476 143.47009 25.5524 143.46094 35.82031 C143.46867 44.50215 143.46867 44.50215 143.47656 53.35938 C143.21094 67.19531 143.21094 67.19531 141.21094 69.19531 C141.15035 64.44254 141.08977 59.68977 141.02734 54.79297 C140.94355 48.67637 140.85977 42.55977 140.77344 36.25781 C140.69223 30.14379 140.61102 24.02977 140.52734 17.73047 C141.64999 9.20243 141.64999 9.20243 139.21094 2.19531 C109.54441 2.09428 79.87763 2.06568 50.21094 2.07031 C25.46094 2.06645 25.46094 2.06645 0.21094 2.0625 C-21.74243 -2.06432 -21.74243 -2.06432 -39.78906 3.19531 C-40.02891 13.88177 -40.20515 24.56967 -40.35156 35.25781 C-40.43535 41.18879 -40.51914 47.11977 -40.60547 53.23047 C-40.66605 57.83887 -40.72664 62.44727 -40.78906 67.19531 C-41.11906 67.19531 -41.44906 67.19531 -41.78906 67.19531 C-41.84269 56.4037 -41.88168 45.61201 -41.91406 34.82031 C-41.93727 28.8107 -41.96047 22.80109 -41.98438 16.60938 C-41.59866 -11.85666 -40.70665 0.19982 0 0 Z " fill="#141017" transform="translate(76.7890625,178.8046875)"/>
<path d="M0 0 C-0.33 0.66 -0.66 1.32 -1 2 C-1.33 1.67 -1.66 1.34 -2 1 C-3.65 1 -5.3 1 -7 1 C-6.01 1.33 -5.02 1.66 -4 2 C-4 3.32 -4 4.64 -4 6 C-3.01 6.33 -2.02 6.66 -1 7 C1.5392 14.6176 0.49373 22.87816 -3 30 C-3.99 30.495 -3.99 30.495 -5 31 C-4.68289 30.1518 -4.36578 29.30359 -4.03906 28.42969 C-2.97129 24.90523 -2.59959 21.79329 -2.375 18.125 C-2.30023 16.97258 -2.22547 15.82016 -2.14844 14.63281 C-2.09945 13.76398 -2.05047 12.89516 -2 12 C-2.66 12 -3.32 12 -4 12 C-4.33 10.68 -4.66 9.36 -5 8 C-6.32 7.34 -7.64 6.68 -9 6 C-9 5.34 -9 4.68 -9 4 C-14.64358 4.46804 -14.64358 4.46804 -19 8 C-19.66 8 -20.32 8 -21 8 C-22.97332 15.89329 -23.0817 23.77854 -19 31 C-16.04856 33.95144 -13.04107 33.60893 -9 34 C-9 34.33 -9 34.66 -9 35 C-17.22071 35.61349 -17.22071 35.61349 -20.9375 32.6875 C-24.95315 27.45498 -25.27152 24.76425 -25.25 18.125 C-25.25773 15.74668 -25.25773 15.74668 -25.26562 13.32031 C-25.03706 9.60277 -24.66691 7.26768 -23 4 C-24.98 4.99 -24.98 4.99 -27 6 C-27.33 13.92 -27.66 21.84 -28 30 C-32.30375 21.3925 -31.77096 12.1253 -29 3 C-26.31816 -0.86501 -24.58094 -1.80323 -20.125 -3.3125 C-11.87553 -4.68741 -7.39269 -3.63948 0 0 Z " fill="#E7E0EA" transform="translate(153,198)"/>
<path d="M0 0 C3.63 0 7.26 0 11 0 C11.75 4.25 11.75 4.25 12 9 C9.85065 12.0705 8.54925 12.81692 5 14 C4.97422 15.25555 4.94844 16.51109 4.92188 17.80469 C4.33581 35.09352 4.33581 35.09352 0 43 C-1.485 43.495 -1.485 43.495 -3 44 C-2.69062 43.29875 -2.38125 42.5975 -2.0625 41.875 C0.81407 34.09133 0.12071 25.83726 0.13281 17.65234 C1 13 1 13 4.55469 9.87891 C5.69164 9.25887 6.82859 8.63883 8 8 C7.67 6.02 7.34 4.04 7 2 C-0.15013 4.13948 -0.15013 4.13948 -5.21875 9.35547 C-8.1428 16.9798 -7.49196 24.65953 -7.53125 32.73828 C-7.68594 34.47465 -7.84063 36.21102 -8 38 C-11.87211 40.90408 -14.40318 41.85079 -19 43 C-19 44.65 -19 46.3 -19 48 C-15.94272 50.35848 -12.57782 51.60863 -9 53 C-6.50848 55.49152 -7.13301 65.55165 -6.9375 68.5625 C-6.7609 71.24504 -6.5843 73.92758 -6.40234 76.69141 C-6.26957 78.77324 -6.1368 80.85508 -6 83 C-6.66 83 -7.32 83 -8 83 C-9.35501 77.57996 -9.3547 72.33094 -9.5625 66.75 C-9.64629 64.55859 -9.73008 62.36719 -9.81641 60.10938 C-9.87699 58.42328 -9.93758 56.73719 -10 55 C-14.95 53.515 -14.95 53.515 -20 52 C-20 51.34 -20 50.68 -20 50 C-20.66 50 -21.32 50 -22 50 C-22.08568 47.00122 -22.08105 43.9989 -22 41 C-19.24434 38.24434 -16.7846 38.54066 -13 38 C-9.12359 34.12359 -10.51424 27.02696 -10.375 21.875 C-10.30023 19.2943 -10.22547 16.71359 -10.14844 14.05469 C-10.09945 12.05664 -10.05047 10.05859 -10 8 C-9.01 7.67 -8.02 7.34 -7 7 C-6.34 5.68 -5.68 4.36 -5 3 C-2.375 2.25 -2.375 2.25 0 2 C0 1.34 0 0.68 0 0 Z " fill="#79756B" transform="translate(89,56)"/>
<path d="M0 0 C-1.875 4.875 -1.875 4.875 -3 6 C-3.46452 9.30418 -3.46452 9.30418 -2 13 C1.42841 15.76824 5.15609 17.86387 9 20 C12 22 12 22 14 26 C14.11719 28.69141 14.11719 28.69141 13.875 31.5625 C13.77832 32.98756 13.77832 32.98756 13.67969 34.44141 C13 37 13 37 9 40 C2.78065 41.849 -3.00723 41.33864 -9 39 C-9 38.01 -9 37.02 -9 36 C-3.39 36 2.22 36 8 36 C8.04125 34.39125 8.0825 32.7825 8.125 31.125 C8.1482 30.22008 8.17141 29.31516 8.19531 28.38281 C8.24325 25.81193 8.24325 25.81193 6 24 C5.15438 23.69063 4.30875 23.38125 3.4375 23.0625 C2.23094 22.53656 2.23094 22.53656 1 22 C0.67 21.01 0.34 20.02 0 19 C-1.32 18.67 -2.64 18.34 -4 18 C-7.65464 14.34536 -7.96509 13.11714 -8.125 8 C-8 4 -8 4 -7 1 C-2.25 0 -2.25 0 0 0 Z " fill="#EBE5EE" transform="translate(100,197)"/>
<path d="M0 0 C0.96809 0.03738 1.93617 0.07477 2.93359 0.11328 C3.90426 0.13777 4.87492 0.16227 5.875 0.1875 C8.37109 0.42578 8.37109 0.42578 10.37109 1.42578 C10.37109 2.08578 10.37109 2.74578 10.37109 3.42578 C11.73234 3.51859 11.73234 3.51859 13.12109 3.61328 C17.25324 4.64632 18.07026 5.89783 20.37109 9.42578 C21.06074 10.4493 21.75039 11.47281 22.46094 12.52734 C24.75438 17.20804 24.87281 20.48688 24.80859 25.67578 C24.8073 27.24844 24.80602 28.82109 24.80469 30.44141 C24.37109 34.42578 24.37109 34.42578 21.37109 37.42578 C20.89672 38.41578 20.42234 39.40578 19.93359 40.42578 C17.51547 45.06858 14.05346 46.65408 9.37109 48.42578 C9.04109 48.75578 8.71109 49.08578 8.37109 49.42578 C6.56182 49.55066 4.74713 49.60149 2.93359 49.61328 C1.94488 49.62746 0.95617 49.64164 -0.0625 49.65625 C-2.62891 49.42578 -2.62891 49.42578 -4.62891 47.42578 C-5.59828 47.15766 -6.56766 46.88953 -7.56641 46.61328 C-10.62891 45.42578 -10.62891 45.42578 -12.56641 43.05078 C-13.62891 40.42578 -13.62891 40.42578 -12.62891 36.42578 C-10.9662 39.10056 -9.62907 41.4253 -8.62891 44.42578 C-0.77135 45.79231 7.42829 47.11217 14.37109 42.42578 C15.03109 41.43578 15.69109 40.44578 16.37109 39.42578 C17.03109 39.42578 17.69109 39.42578 18.37109 39.42578 C19.89764 29.87257 21.38984 19.11207 16.37109 10.42578 C15.71109 9.10578 15.05109 7.78578 14.37109 6.42578 C7.48446 3.15755 1.72326 2.64344 -5.62891 4.42578 C-2.62891 0.42578 -2.62891 0.42578 0 0 Z " fill="#B8A3C4" transform="translate(137.62890625,191.57421875)"/>
<path d="M0 0 C2.95494 0.23959 4.73448 0.81793 7.1875 2.5 C9.77718 6.07197 10.24255 9.70781 11 14 C9.35 13.67 7.7 13.34 6 13 C3.83299 17.33403 4.5976 23.41355 4.4375 28.125 C4.35371 30.52008 4.26992 32.91516 4.18359 35.38281 C4.12301 37.23648 4.06242 39.09016 4 41 C2.35 40.67 0.7 40.34 -1 40 C-1.02681 33.52086 -1.04631 27.04168 -1.0625 20.5625 C-1.0741 16.95441 -1.0857 13.34633 -1.09766 9.62891 C-1 1 -1 1 0 0 Z " fill="#F7F5F8" transform="translate(171,196)"/>
<path d="M0 0 C1.0725 -0.02578 2.145 -0.05156 3.25 -0.07812 C4.61125 0.0843 4.61125 0.0843 6 0.25 C8.28063 3.67094 8.21925 4.93187 8.125 8.9375 C8.10695 9.93137 8.08891 10.92523 8.07031 11.94922 C8.04711 12.70848 8.02391 13.46773 8 14.25 C5.23548 15.63226 2.95386 15.34525 -0.125 15.3125 C-1.2207 15.30348 -2.31641 15.29445 -3.44531 15.28516 C-4.70988 15.26775 -4.70988 15.26775 -6 15.25 C-6.66 13.93 -7.32 12.61 -8 11.25 C-8.99 10.92 -9.98 10.59 -11 10.25 C-11 8.6 -11 6.95 -11 5.25 C-10.34 4.92 -9.68 4.59 -9 4.25 C-8.67 3.26 -8.34 2.27 -8 1.25 C-5.27977 -0.11012 -3.03381 0.04376 0 0 Z " fill="#AEAB97" transform="translate(126,78.75)"/>
<path d="M0 0 C16.21898 0.0232 32.43797 0.04641 49.14844 0.07031 C73.48465 0.09738 73.48465 0.09738 98.3125 0.125 C110.92211 0.1482 123.53172 0.17141 136.52344 0.19531 C136.52344 0.52531 136.52344 0.85531 136.52344 1.19531 C124.0698 1.2559 111.61617 1.31648 98.78516 1.37891 C82.75566 1.4627 66.72617 1.54648 50.21094 1.63281 C26.1783 1.75463 26.1783 1.75463 1.66016 1.87891 C-19.25998 0.42481 -19.25998 0.42481 -39.47656 3.19531 C-39.36325 12.79962 -39.23563 22.40377 -39.10156 32.00781 C-39.03195 37.35613 -38.96234 42.70445 -38.89062 48.21484 C-39.65806 59.99495 -39.65806 59.99495 -36.47656 64.19531 C-37.79656 63.53531 -39.11656 62.87531 -40.47656 62.19531 C-40.5302 52.23704 -40.56919 42.27868 -40.60156 32.32031 C-40.62477 26.77477 -40.64797 21.22922 -40.67188 15.51562 C-40.27677 -11.4305 -38.68814 0.19639 0 0 Z " fill="#6A5375" transform="translate(78.4765625,181.8046875)"/>
<path d="M0 0 C0.66 0.33 1.32 0.66 2 1 C-1.08669 4.08669 -1.91928 4.44855 -6 5 C-7.43104 12.15518 -7.33606 19.29891 -7.52344 26.58203 C-7.97355 31.69931 -8.78274 35.3921 -11 40 C-14.49585 42.33057 -16.47684 42.40697 -20.625 42.6875 C-21.79289 42.77387 -22.96078 42.86023 -24.16406 42.94922 C-25.09992 42.96598 -26.03578 42.98273 -27 43 C-28 42 -28 42 -28.0625 37.4375 C-28.04188 35.97313 -28.02125 34.50875 -28 33 C-25.69 32.34 -23.38 31.68 -21 31 C-20.96262 29.3977 -20.92523 27.79539 -20.88672 26.14453 C-20.82098 24.05496 -20.75523 21.96539 -20.6875 19.8125 C-20.62949 17.73582 -20.57148 15.65914 -20.51172 13.51953 C-20 8 -20 8 -17 3 C-16.34 2.67 -15.68 2.34 -15 2 C-15.66 3.32 -16.32 4.64 -17 6 C-19.18586 12.55758 -18.4824 20.1141 -18.71875 26.97656 C-19 32 -19 32 -20 33 C-21.99958 33.04081 -24.00045 33.04254 -26 33 C-26.33 35.64 -26.66 38.28 -27 41 C-25.4325 40.89687 -23.865 40.79375 -22.25 40.6875 C-21.36828 40.62949 -20.48656 40.57148 -19.57812 40.51172 C-16.53307 40.1006 -16.53307 40.1006 -13 37 C-12.5008 29.56151 -12.56272 22.18061 -12.56641 14.72656 C-12 8 -12 8 -7 3 C-3.75 1.75 -3.75 1.75 -1 1 C-0.67 0.67 -0.34 0.34 0 0 Z " fill="#898579" transform="translate(180,104)"/>
<path d="M0 0 C1.65 0 3.3 0 5 0 C7.3125 2.5 7.3125 2.5 9 5 C7 4 5 3 3 2 C2.67 11.24 2.34 20.48 2 30 C11.24 30 20.48 30 30 30 C27.16343 26.96731 27.16343 26.96731 24 25 C24 23.68 24 22.36 24 21 C23.29875 20.77313 22.5975 20.54625 21.875 20.3125 C18.38556 18.7195 15.86257 16.52971 13 14 C13.33 12.68 13.66 11.36 14 10 C14.55687 10.59812 15.11375 11.19625 15.6875 11.8125 C17.93 14.09595 17.93 14.09595 20.75 15.625 C21.4925 16.07875 22.235 16.5325 23 17 C23 17.66 23 18.32 23 19 C24.32 19.66 25.64 20.32 27 21 C28.5 23.5 28.5 23.5 30 26 C31.32 26.66 32.64 27.32 34 28 C34 29.32 34 30.64 34 32 C28.70844 32.05369 23.41673 32.09265 18.125 32.125 C13.7048 32.1598 13.7048 32.1598 9.19531 32.19531 C2 32 2 32 0 30 C-0.14566 24.96027 -0.16737 19.91666 -0.125 14.875 C-0.10695 12.10867 -0.08891 9.34234 -0.07031 6.49219 C-0.04711 4.34977 -0.02391 2.20734 0 0 Z " fill="#8E8966" transform="translate(174,21)"/>
<path d="M0 0 C2.79298 0.441 5.3134 1.10447 8 2 C8.66 3.32 9.32 4.64 10 6 C11.96455 7.70831 13.96707 9.37366 16 11 C18.4375 13.0625 18.4375 13.0625 20 15 C19.67 16.32 19.34 17.64 19 19 C18.67 18.01 18.34 17.02 18 16 C16.68 15.34 15.36 14.68 14 14 C14 13.34 14 12.68 14 12 C13.01 11.67 12.02 11.34 11 11 C9.82438 9.515 9.82438 9.515 8.625 8 C6.09186 4.49073 6.09186 4.49073 1 4 C1.14005 8.97933 1.28718 13.95847 1.4375 18.9375 C1.51871 21.71027 1.59992 24.48305 1.68359 27.33984 C1.22539 33.44964 1.22539 33.44964 3 35 C8.35213 35.23859 13.70707 35.41549 19.0625 35.5625 C22.02348 35.64629 24.98445 35.73008 28.03516 35.81641 C31.48275 35.90729 31.48275 35.90729 35 36 C34.45564 31.89239 34.45564 31.89239 31.5 30.375 C30.675 29.92125 29.85 29.4675 29 29 C28.67 28.34 28.34 27.68 28 27 C29.32 27.66 30.64 28.32 32 29 C33.32 29.33 34.64 29.66 36 30 C36.04242 32.33295 36.04093 34.66703 36 37 C33.501 39.499 22.0714 38.23473 19.1875 38.25 C14.81564 38.28867 14.81564 38.28867 10.35547 38.32812 C3 38 3 38 -1 35 C-1.31541 29.29944 -1.38108 23.58387 -1.3125 17.875 C-1.28801 14.75805 -1.26352 11.64109 -1.23828 8.42969 C-1 1 -1 1 0 0 Z " fill="#524F3B" transform="translate(173,17)"/>
<path d="M0 0 C4.75 0.4375 4.75 0.4375 7.5625 3 C14.31522 13.61141 14.31522 13.61141 15.75 18.4375 C15.42 19.7575 15.09 21.0775 14.75 22.4375 C12.75 20.4375 12.75 20.4375 12.625 17.3125 C12.66625 16.36375 12.7075 15.415 12.75 14.4375 C11.76 14.1075 10.77 13.7775 9.75 13.4375 C8.38365 10.7876 7.04969 8.12073 5.75 5.4375 C5.09 5.1075 4.43 4.7775 3.75 4.4375 C3.75 3.7775 3.75 3.1175 3.75 2.4375 C1.77 3.0975 -0.21 3.7575 -2.25 4.4375 C-2.58 18.6275 -2.91 32.8175 -3.25 47.4375 C-0.61 47.4375 2.03 47.4375 4.75 47.4375 C4.75 39.8475 4.75 32.2575 4.75 24.4375 C5.08 24.4375 5.41 24.4375 5.75 24.4375 C5.77682 28.74997 5.79631 33.06248 5.8125 37.375 C5.8241 39.77652 5.8357 42.17805 5.84766 44.65234 C5.75 50.4375 5.75 50.4375 4.75 51.4375 C-1.71154 51.79647 -1.71154 51.79647 -5.25 49.4375 C-5.49678 41.42003 -5.54676 33.39613 -5.5 25.375 C-5.48453 20.94965 -5.46906 16.5243 -5.45312 11.96484 C-5.23266 0.53866 -5.23266 0.53866 0 0 Z " fill="#AE96BB" transform="translate(172.25,190.5625)"/>
<path d="M0 0 C7.95826 -0.05365 15.91662 -0.09263 23.875 -0.125 C28.3068 -0.1482 32.73859 -0.17141 37.30469 -0.19531 C48 0 48 0 50 2 C50.14793 20.04111 50.16686 38.08333 50.125 56.125 C50.10695 66.1307 50.08891 76.13641 50.07031 86.44531 C50.04711 94.21836 50.02391 101.99141 50 110 C49.01 109.505 49.01 109.505 48 109 C48.33 74.02 48.66 39.04 49 3 C33.16 2.67 17.32 2.34 1 2 C0.67 3.32 0.34 4.64 0 6 C0 4.02 0 2.04 0 0 Z " fill="#898874" transform="translate(168,62)"/>
<path d="M0 0 C1.98 0.66 3.96 1.32 6 2 C35.458 2.1472 64.91667 2.16702 94.375 2.125 C118.79629 2.09793 118.79629 2.09793 143.71094 2.07031 C156.34633 2.04711 168.98172 2.02391 182 2 C181.67 2.66 181.34 3.32 181 4 C151.20834 4.0268 121.41667 4.0463 91.625 4.0625 C75.03477 4.0741 58.44453 4.0857 41.35156 4.09766 C2 4 2 4 0 3 C0 2.01 0 1.02 0 0 Z " fill="#120E14" transform="translate(36,246)"/>
<path d="M0 0 C0.94875 0.04125 1.8975 0.0825 2.875 0.125 C6.66096 7.69693 5.09315 16.96365 5.0625 25.25 C5.05605 29.08883 5.04961 32.92766 5.04297 36.88281 C4.875 46.125 4.875 46.125 3.875 48.125 C1.565 48.125 -0.745 48.125 -3.125 48.125 C-3.785 46.805 -4.445 45.485 -5.125 44.125 C-2.485 44.785 0.155 45.445 2.875 46.125 C2.875 31.605 2.875 17.085 2.875 2.125 C1.225 2.785 -0.425 3.445 -2.125 4.125 C-2.455 11.715 -2.785 19.305 -3.125 27.125 C-4.775 27.125 -6.425 27.125 -8.125 27.125 C-8.455 25.145 -8.785 23.165 -9.125 21.125 C-7.805 22.115 -6.485 23.105 -5.125 24.125 C-5.1482 22.56008 -5.17141 20.99516 -5.19531 19.38281 C-5.21336 17.35898 -5.23141 15.33516 -5.25 13.25 C-5.2732 11.23133 -5.29641 9.21266 -5.32031 7.13281 C-5.05 0.202 -5.05 0.202 0 0 Z " fill="#C2B0CB" transform="translate(197.125,191.875)"/>
<path d="M0 0 C3.5 0.125 3.5 0.125 4.5 1.125 C4.65377 7.76958 4.72208 14.4162 4.75 21.0625 C4.77578 24.74277 4.80156 28.42305 4.82812 32.21484 C4.71984 35.1552 4.61156 38.09555 4.5 41.125 C3.51 41.785 2.52 42.445 1.5 43.125 C1.83 42.135 2.16 41.145 2.5 40.125 C2.57258 33.72954 2.58375 27.33333 2.5625 20.9375 C2.55348 17.4377 2.54445 13.93789 2.53516 10.33203 C2.52355 7.62371 2.51195 4.91539 2.5 2.125 C0.52 2.125 -1.46 2.125 -3.5 2.125 C-3.5 14.335 -3.5 26.545 -3.5 39.125 C-7.83938 41.29469 -9.9839 41.33826 -14.75 41.25 C-16.64492 41.22293 -16.64492 41.22293 -18.57812 41.19531 C-20.02445 41.16051 -20.02445 41.16051 -21.5 41.125 C-21.5 42.115 -21.5 43.105 -21.5 44.125 C-19.83711 44.21588 -19.83711 44.21588 -18.14062 44.30859 C-16.69172 44.39238 -15.24281 44.47617 -13.75 44.5625 C-12.31141 44.64371 -10.87281 44.72492 -9.39062 44.80859 C-5.5 45.125 -5.5 45.125 -1.5 46.125 C-4.23388 48.85888 -5.8719 48.45609 -9.6875 48.5 C-15.32712 48.43748 -18.87445 47.56727 -23.5 44.125 C-23.17 42.475 -22.84 40.825 -22.5 39.125 C-14.085 38.63 -14.085 38.63 -5.5 38.125 C-5.43941 35.46566 -5.37883 32.80633 -5.31641 30.06641 C-5.23262 26.64137 -5.14883 23.21633 -5.0625 19.6875 C-4.94068 14.55381 -4.94068 14.55381 -4.81641 9.31641 C-4.4627 0.15938 -4.4627 0.15938 0 0 Z " fill="#C5B3CE" transform="translate(75.5,191.875)"/>
<path d="M0 0 C0.99 0.33 1.98 0.66 3 1 C3.05402 6.02072 3.0928 11.0416 3.125 16.0625 C3.1482 18.85848 3.17141 21.65445 3.19531 24.53516 C3.03443 30.68407 2.80034 35.39931 0 41 C-3.92439 41.9811 -6.62658 42.02077 -10.625 41.75 C-12.3459 41.64945 -12.3459 41.64945 -14.10156 41.54688 C-15.05805 41.36641 -16.01453 41.18594 -17 41 C-17.66 40.01 -18.32 39.02 -19 38 C-17.95199 37.95102 -16.90398 37.90203 -15.82422 37.85156 C-14.4591 37.7768 -13.09398 37.70203 -11.6875 37.625 C-10.33012 37.55539 -8.97273 37.48578 -7.57422 37.41406 C-3.90204 37.26349 -3.90204 37.26349 -1 35 C-0.61762 29.13298 -0.41823 23.25352 -0.3125 17.375 C-0.24676 14.14461 -0.18102 10.91422 -0.11328 7.58594 C-0.0759 5.08258 -0.03852 2.57922 0 0 Z " fill="#F9F8FA" transform="translate(74,196)"/>
<path d="M0 0 C0.66 0 1.32 0 2 0 C2.02681 7.97915 2.04631 15.95832 2.0625 23.9375 C2.0741 28.3809 2.0857 32.8243 2.09766 37.40234 C2 48 2 48 1 49 C-2.33618 49.14257 -5.65976 49.04228 -9 49 C-9 50.98 -9 52.96 -9 55 C-7.35 55.66 -5.7 56.32 -4 57 C-4 57.33 -4 57.66 -4 58 C-6.31 58 -8.62 58 -11 58 C-12.46935 53.59194 -12.11909 49.64443 -12 45 C-11 44 -11 44 -7.125 43.875 C-3 44 -3 44 0 45 C0 30.15 0 15.3 0 0 Z " fill="#C2C0A5" transform="translate(163,11)"/>
<path d="M0 0 C15.18 0 30.36 0 46 0 C46 0.33 46 0.66 46 1 C31.48 1 16.96 1 2 1 C2.66 2.32 3.32 3.64 4 5 C4.27369 8.68211 4.44891 12.37198 4.5625 16.0625 C4.5956 23.14739 4.5956 23.14739 6 30 C9.3 30.66 12.6 31.32 16 32 C16.29297 39.51953 16.29297 39.51953 16 42 C13 45 13 45 8.8125 45.1875 C6.92531 45.09469 6.92531 45.09469 5 45 C5 44.67 5 44.34 5 44 C5.9075 43.71125 6.815 43.4225 7.75 43.125 C11.19166 42.01253 11.19166 42.01253 15 40 C14.69063 39.23687 14.38125 38.47375 14.0625 37.6875 C13.32106 35.8121 12.63772 33.91315 12 32 C10.36031 32.15469 10.36031 32.15469 8.6875 32.3125 C5 32 5 32 3.34375 30.13281 C1.42272 25.65413 1.21031 21.40757 0.8125 16.5625 C0.65395 14.72816 0.49539 12.89383 0.33203 11.00391 C0.08907 7.34232 0 3.66964 0 0 Z " fill="#ADAB96" transform="translate(169,64)"/>
<path d="M0 0 C1.91811 1.91811 1.17439 5.26589 1.1875 7.8125 C1.20168 9.05645 1.21586 10.30039 1.23047 11.58203 C1 15 1 15 -1 19 C-3.31 18.67 -5.62 18.34 -8 18 C-8 12.06 -8 6.12 -8 0 C-4.69676 -1.10108 -3.29495 -0.86709 0 0 Z " fill="#363133" transform="translate(129,113)"/>
<path d="M0 0 C1.32 0.66 2.64 1.32 4 2 C4 2.66 4 3.32 4 4 C4.99 4.33 5.98 4.66 7 5 C9.5392 12.6176 8.49373 20.87816 5 28 C4.34 28.33 3.68 28.66 3 29 C3.47566 27.7277 3.47566 27.7277 3.96094 26.42969 C5.02871 22.90523 5.40041 19.79329 5.625 16.125 C5.69977 14.97258 5.77453 13.82016 5.85156 12.63281 C5.90055 11.76398 5.94953 10.89516 6 10 C5.34 10 4.68 10 4 10 C3.67 8.68 3.34 7.36 3 6 C1.68 5.34 0.36 4.68 -1 4 C-1 3.34 -1 2.68 -1 2 C-6.64358 2.46804 -6.64358 2.46804 -11 6 C-11.66 6 -12.32 6 -13 6 C-14.97332 13.89329 -15.0817 21.77854 -11 29 C-8.04856 31.95144 -5.04107 31.60893 -1 32 C-1 32.33 -1 32.66 -1 33 C-9.18552 33.61086 -9.18552 33.61086 -13 30.75 C-17.61459 24.40494 -16.68664 15.50019 -16 8 C-14.71144 4.72635 -13.59893 3.47805 -11 1 C-7.18224 -0.27259 -4.00886 -0.18502 0 0 Z " fill="#CFC0D7" transform="translate(145,200)"/>
<path d="M0 0 C3.23943 1.61972 3.70297 3.63416 5 7 C5.35971 10.94861 5.57617 14.9116 5.6875 18.875 C5.75324 20.95555 5.81898 23.03609 5.88672 25.17969 C5.9241 26.77039 5.96148 28.36109 6 30 C6.96937 30.47438 7.93875 30.94875 8.9375 31.4375 C12 33 12 33 13 34 C13.3125 36.875 13.3125 36.875 13 40 C9 43 9 43 5 43 C5 42.34 5 41.68 5 41 C3.88625 40.77312 2.7725 40.54625 1.625 40.3125 C-2 39 -2 39 -3.4375 36.375 C-3.62313 35.59125 -3.80875 34.8075 -4 34 C-3.34 34 -2.68 34 -2 34 C-1.34 34.99 -0.68 35.98 0 37 C2.41607 37.79798 2.41607 37.79798 5.125 38.1875 C6.73375 38.45562 8.3425 38.72375 10 39 C9.89831 36.05272 9.89831 36.05272 9 33 C7.33927 32.31868 5.67223 31.65258 4 31 C1.5983 25.80465 1.63406 20.58768 1.4375 14.9375 C1.24758 7.40276 1.24758 7.40276 0 0 Z " fill="#6E6865" transform="translate(87,105)"/>
<path d="M0 0 C1.65 0 3.3 0 5 0 C5.66 0.99 6.32 1.98 7 3 C6.67 4.32 6.34 5.64 6 7 C4.50727 7.81211 4.50727 7.81211 2.98438 8.64062 C-0.49164 10.84397 -0.49164 10.84397 -0.73438 15.48438 C-0.73953 17.22203 -0.74469 18.95969 -0.75 20.75 C-0.89458 36.89458 -0.89458 36.89458 -4 40 C-4.04109 42.99972 -4.04225 46.0003 -4 49 C-5.32 48.67 -6.64 48.34 -8 48 C-8.1875 44.125 -8.1875 44.125 -8 40 C-7.01 39.34 -6.02 38.68 -5 38 C-4.6498 31.1006 -4.68823 24.23188 -4.69922 17.32422 C-4 11 -4 11 -1.14453 7.64453 C2 6 2 6 5 6 C4.67 5.01 4.34 4.02 4 3 C2.02 3 0.04 3 -2 3 C-1.34 2.01 -0.68 1.02 0 0 Z " fill="#2B282A" transform="translate(91,58)"/>
<path d="M0 0 C5.0263 0.73916 9.36893 2.36893 13 6 C13.34286 13.31429 13.34286 13.31429 12 16 C6.39 16 0.78 16 -5 16 C-5 16.99 -5 17.98 -5 19 C6.28483 20.28258 6.28483 20.28258 17 17 C15 21 15 21 12 24 C5.97914 24.89228 0.60404 24.84146 -4.8125 22 C-5.53437 21.34 -6.25625 20.68 -7 20 C-6.67 18.35 -6.34 16.7 -6 15 C1.92 14.505 1.92 14.505 10 14 C10 12.02 10 10.04 10 8 C7.97142 5.62842 7.97142 5.62842 4 5 C4 4.34 4 3.68 4 3 C3.34 3 2.68 3 2 3 C2 2.34 2 1.68 2 1 C1.34 0.67 0.68 0.34 0 0 Z " fill="#CDBFD5" transform="translate(96,217)"/>
<path d="M0 0 C0.66 0 1.32 0 2 0 C2.10788 6.02044 2.18553 12.04144 2.25 18.0625 C2.29641 21.41535 2.34281 24.7682 2.39062 28.22266 C2 37 2 37 -2 44 C-8.38307 49.53199 -16.03585 48.369 -24 48 C-24.33 46.68 -24.66 45.36 -25 44 C-23.68 44.33 -22.36 44.66 -21 45 C-18.83724 45.16658 -16.66865 45.26525 -14.5 45.3125 C-12.81391 45.36857 -12.81391 45.36857 -11.09375 45.42578 C-7.33736 44.9088 -6.40023 43.83712 -4 41 C-3.01 40.34 -2.02 39.68 -1 39 C-0.61682 32.46555 -0.41806 25.91983 -0.3125 19.375 C-0.24676 15.77336 -0.18102 12.17172 -0.11328 8.46094 C-0.0759 5.66883 -0.03852 2.87672 0 0 Z " fill="#AD94BA" transform="translate(80,194)"/>
<path d="M0 0 C0.66 0.33 1.32 0.66 2 1 C2 2.32 2 3.64 2 5 C2.66 5 3.32 5 4 5 C4.47233 13.48884 4.08227 19.47332 0 27 C-10.01933 27.62189 -10.01933 27.62189 -13.5625 25.375 C-17.38394 19.06132 -17.94107 12.26543 -17 5 C-16.01 3.68 -15.02 2.36 -14 1 C-14.165 1.66 -14.33 2.32 -14.5 3 C-15.61011 9.66069 -15.06736 15.58029 -13 22 C-10.28295 25.35967 -10.28295 25.35967 -6.4375 25.3125 C-2.93732 25.3641 -2.93732 25.3641 -1 23 C-0.69353 19.13152 -0.50286 15.25349 -0.375 11.375 C-0.30023 9.25836 -0.22547 7.14172 -0.14844 4.96094 C-0.09945 3.32383 -0.05047 1.68672 0 0 Z " fill="#A88EB7" transform="translate(147,205)"/>
<path d="M0 0 C0.99 0 1.98 0 3 0 C3 14.19 3 28.38 3 43 C2.01 43 1.02 43 0 43 C-1.61451 34.92747 -0.80956 26.89536 -0.5625 18.6875 C-0.46066 15.20574 -0.35883 11.72398 -0.25391 8.13672 C-0.12822 4.10904 -0.12822 4.10904 0 0 Z " fill="#F1F1CC" transform="translate(160,13)"/>
<path d="M0 0 C-1.875 4.875 -1.875 4.875 -3 6 C-3.46452 9.30418 -3.46452 9.30418 -2 13 C1.43744 15.75528 5.13245 17.90375 9 20 C6 22 6 22 2 23 C1.34 21.68 0.68 20.36 0 19 C-1.32 18.67 -2.64 18.34 -4 18 C-7.65464 14.34536 -7.96509 13.11714 -8.125 8 C-8 4 -8 4 -7 1 C-2.25 0 -2.25 0 0 0 Z " fill="#ECE8EE" transform="translate(100,197)"/>
<path d="M0 0 C0.33 0.99 0.66 1.98 1 3 C0.01 4.485 0.01 4.485 -1 6 C-1.19346 8.95318 -1.25959 11.91551 -1.25 14.875 C-1.25773 17.25332 -1.25773 17.25332 -1.26562 19.67969 C-0.97375 24.62056 -0.97375 24.62056 1 29 C2.32 29.66 3.64 30.32 5 31 C5 31.99 5 32.98 5 34 C3.35 34 1.7 34 0 34 C-3.98299 29.96122 -4.9491 27.50293 -5.52344 21.82812 C-5.47445 19.98734 -5.42547 18.14656 -5.375 16.25 C-5.34148 14.39891 -5.30797 12.54781 -5.27344 10.64062 C-5 6 -5 6 -4 3 C-2.68 2.01 -1.36 1.02 0 0 Z " fill="#F7F5F9" transform="translate(130,201)"/>
<path d="M0 0 C0.33 0 0.66 0 1 0 C0.67175 6.34623 -0.55655 9.44261 -5 14 C-0.4654 12.86635 0.90025 11.35807 4 8 C4 8.99 4 9.98 4 11 C3.34 11 2.68 11 2 11 C1.34 12.32 0.68 13.64 0 15 C-5.02711 18.51898 -10.07324 18.52599 -16 18 C-20.33847 17.23027 -22.34213 16.64142 -25.5 13.5625 C-25.995 12.71687 -26.49 11.87125 -27 11 C-26.67 10.01 -26.34 9.02 -26 8 C-22 12.75 -22 12.75 -22 15 C-20.35 15 -18.7 15 -17 15 C-17 14.34 -17 13.68 -17 13 C-16.18016 12.93684 -15.36031 12.87367 -14.51562 12.80859 C-7.42935 12.17467 -7.42935 12.17467 -2.3125 7.625 C-0.9219 3.97723 -0.9219 3.97723 0 0 Z " fill="#EAE4ED" transform="translate(152,220)"/>
<path d="M0 0 C1.32 0 2.64 0 4 0 C4 0.99 4 1.98 4 3 C3.01 3.33 2.02 3.66 1 4 C0.67 12.25 0.34 20.5 0 29 C-2.66667 28.33333 -5.33333 27.66667 -8 27 C-8.26812 25.90688 -8.53625 24.81375 -8.8125 23.6875 C-9.7602 19.78349 -9.7602 19.78349 -13 17 C-14.1875 13.8125 -14.1875 13.8125 -15 11 C-10.49977 15.34504 -7.72059 18.6588 -7 25 C-5.35 25 -3.7 25 -2 25 C-2.0232 23.36289 -2.04641 21.72578 -2.07031 20.03906 C-2.09738 16.8641 -2.09738 16.8641 -2.125 13.625 C-2.1482 11.51352 -2.17141 9.40203 -2.19531 7.22656 C-2 2 -2 2 0 0 Z " fill="#DBD1E0" transform="translate(196,194)"/>
<path d="M0 0 C0.66 0.33 1.32 0.66 2 1 C2.05366 8.45826 2.09263 15.91662 2.125 23.375 C2.1482 27.52836 2.17141 31.68172 2.19531 35.96094 C2 46 2 46 0 48 C-3.4375 48.3125 -3.4375 48.3125 -7 48 C-10.69591 44.30409 -12.66975 40.6605 -15 36 C-15 35.01 -15 34.02 -15 33 C-15.99 32.67 -16.98 32.34 -18 32 C-18.33 29.69 -18.66 27.38 -19 25 C-15.19529 26.90236 -14.11312 31.72457 -12.5625 35.5 C-10.96105 39.08724 -9.56208 42.01091 -7 45 C-4.69 45.33 -2.38 45.66 0 46 C0 30.82 0 15.64 0 0 Z " fill="#AB92B9" transform="translate(201,194)"/>
<path d="M0 0 C3.25377 3.75107 3.40628 7.16204 3.375 12 C3.38273 13.19625 3.39047 14.3925 3.39844 15.625 C2.97065 19.24862 2.29463 21.17787 0 24 C-3.5625 24.4375 -3.5625 24.4375 -7 24 C-10.59452 20.40548 -10.24197 15.82985 -10.375 11 C-10.42398 9.78312 -10.47297 8.56625 -10.52344 7.3125 C-10 4 -10 4 -7.78906 1.5625 C-5 0 -5 0 0 0 Z M-8 4 C-8 9.94 -8 15.88 -8 22 C-5.69 22.33 -3.38 22.66 -1 23 C1.13707 18.72585 1.26961 16.57076 1.25 11.875 C1.25773 10.01488 1.25773 10.01488 1.26562 8.11719 C1.32867 4.89899 1.32867 4.89899 -1 3 C-4.89459 2.78918 -4.89459 2.78918 -8 4 Z " fill="#918D81" transform="translate(129,109)"/>
<path d="M0 0 C2.76713 0.0066 4.99368 2.23314 5.00028 5.00028 C4.99368 7.76741 2.76713 9.99396 0 10.00055 C-2.76713 9.99396 -4.99368 7.76741 -5.00028 5.00028 C-4.99368 2.23314 -2.76713 0.0066 0 0 Z " fill="#100E10" transform="translate(126,80.99972405)"/>
<path d="M0 0 C1.98 0.495 1.98 0.495 4 1 C3.01 1.33 2.02 1.66 1 2 C0.67 13.22 0.34 24.44 0 36 C6.47582 39.23791 13.08911 38.18183 20.25 38.125 C23.18391 38.10695 26.11781 38.08891 29.14062 38.07031 C32.53602 38.03551 32.53602 38.03551 36 38 C36.33 36.02 36.66 34.04 37 32 C39 36 39 36 39 40 C32.70854 40.08051 26.41679 40.13896 20.125 40.1875 C16.62133 40.2223 13.11766 40.25711 9.50781 40.29297 C5.29645 40.14795 5.29645 40.14795 1 40 C-2.9066 34.1401 -1.21664 25.65164 -1.1875 18.875 C-1.18105 15.57242 -1.17461 12.26984 -1.16797 8.86719 C-1 1 -1 1 0 0 Z " fill="#1C1A13" transform="translate(172,16)"/>
<path d="M0 0 C2.25246 2.68842 3.88214 4.64642 5 8 C12.85756 9.36653 21.0572 10.68639 28 6 C28.66 5.01 29.32 4.02 30 3 C30.66 3 31.32 3 32 3 C32.33 2.01 32.66 1.02 33 0 C33.3125 2.75 33.3125 2.75 33 6 C30.01875 9.06643 26.98278 10.56177 23 12 C22.67 12.33 22.34 12.66 22 13 C20.19073 13.12488 18.37604 13.17571 16.5625 13.1875 C15.07943 13.20877 15.07943 13.20877 13.56641 13.23047 C11 13 11 13 9 11 C8.03062 10.73188 7.06125 10.46375 6.0625 10.1875 C3 9 3 9 1.125 6.625 C0 4 0 4 0 0 Z " fill="#B7A2C3" transform="translate(124,228)"/>
<path d="M0 0 C4 2 4 2 5 4 C5.84563 4.495 6.69125 4.99 7.5625 5.5 C8.36687 5.995 9.17125 6.49 10 7 C10 7.66 10 8.32 10 9 C11.32 9.66 12.64 10.32 14 11 C15.625 13.5 15.625 13.5 17 16 C17.66 16.66 18.32 17.32 19 18 C19 18.99 19 19.98 19 21 C9.43 21 -0.14 21 -10 21 C-10 20.67 -10 20.34 -10 20 C-1.09 20 7.82 20 17 20 C14.16343 16.96731 14.16343 16.96731 11 15 C11 13.68 11 12.36 11 11 C10.29875 10.77313 9.5975 10.54625 8.875 10.3125 C5.31298 8.68636 2.79781 6.73274 0 4 C0 2.68 0 1.36 0 0 Z " fill="#B6AF83" transform="translate(187,31)"/>
<path d="M0 0 C0.33 0 0.66 0 1 0 C1.03738 1.85367 1.07477 3.70734 1.11328 5.61719 C1.17902 8.01227 1.24477 10.40734 1.3125 12.875 C1.37051 15.26492 1.42852 17.65484 1.48828 20.11719 C1.65715 22.05852 1.82602 23.99984 2 26 C2.99 26.66 3.98 27.32 5 28 C5.875 32.4375 5.875 32.4375 6 37 C5.01 37.99 4.02 38.98 3 40 C1.40308 44.79077 1.63194 49.65987 1.4375 54.6875 C1.35371 56.79512 1.26992 58.90273 1.18359 61.07422 C1.12301 62.69973 1.06242 64.32523 1 66 C0.67 66 0.34 66 0 66 C-0.08079 61.58363 -0.13909 57.16684 -0.1875 52.75 C-0.2223 50.29047 -0.25711 47.83094 -0.29297 45.29688 C0 39 0 39 3 35 C3 33.68 3 32.36 3 31 C2.01 30.01 1.02 29.02 0 28 C-0.21567 23.27534 -0.2517 18.54164 -0.1875 13.8125 C-0.16043 11.24082 -0.13336 8.66914 -0.10547 6.01953 C-0.07066 4.03309 -0.03586 2.04664 0 0 Z " fill="#AEAB97" transform="translate(159,69)"/>
<path d="M0 0 C1.32387 0.00387 2.64773 0.00773 4.01172 0.01172 C7.3125 0.3125 7.3125 0.3125 9.3125 2.3125 C9.4375 5.4375 9.4375 5.4375 9.3125 8.3125 C8.6525 8.3125 7.9925 8.3125 7.3125 8.3125 C6.9825 6.9925 6.6525 5.6725 6.3125 4.3125 C1.81443 2.06347 -4.30831 3.03666 -9.125 4 C-12.44226 5.69909 -13.2889 6.8528 -14.6875 10.3125 C-15.11437 13.30062 -15.46287 16.30241 -15.6875 19.3125 C-14.6975 19.3125 -13.7075 19.3125 -12.6875 19.3125 C-10.5 22.3125 -10.5 22.3125 -8.6875 25.3125 C-11.1625 24.3225 -11.1625 24.3225 -13.6875 23.3125 C-13.6875 22.6525 -13.6875 21.9925 -13.6875 21.3125 C-14.6775 20.9825 -15.6675 20.6525 -16.6875 20.3125 C-17.30949 10.60255 -17.30949 10.60255 -15 5.8125 C-10.35987 0.79614 -6.79386 -0.0865 0 0 Z " fill="#B59FC1" transform="translate(104.6875,191.6875)"/>
<path d="M0 0 C1.32 0.99 2.64 1.98 4 3 C3 7 3 7 0 10 C-0.99 10.33 -1.98 10.66 -3 11 C-3.03738 12.66289 -3.07477 14.32578 -3.11328 16.03906 C-3.17902 18.21242 -3.24477 20.38578 -3.3125 22.625 C-3.37051 24.78289 -3.42852 26.94078 -3.48828 29.16406 C-4.18219 37.07783 -4.18219 37.07783 -7 41 C-8.485 41.495 -8.485 41.495 -10 42 C-9.69062 41.29875 -9.38125 40.5975 -9.0625 39.875 C-6.18593 32.09133 -6.87929 23.83726 -6.86719 15.65234 C-6 11 -6 11 -2.44531 7.87891 C-1.30836 7.25887 -0.17141 6.63883 1 6 C0.67 4.02 0.34 2.04 0 0 Z " fill="#746E6A" transform="translate(96,58)"/>
<path d="M0 0 C2.79298 0.441 5.3134 1.10447 8 2 C8.66 3.32 9.32 4.64 10 6 C11.96455 7.70831 13.96707 9.37366 16 11 C18.4375 13.0625 18.4375 13.0625 20 15 C19.67 16.32 19.34 17.64 19 19 C18.67 18.01 18.34 17.02 18 16 C16.68 15.34 15.36 14.68 14 14 C14 13.34 14 12.68 14 12 C13.01 11.67 12.02 11.34 11 11 C9.12602 8.98547 7.43901 6.86139 5.71875 4.71484 C4.0507 2.64685 4.0507 2.64685 1 3 C0.67 13.56 0.34 24.12 0 35 C-0.33 35 -0.66 35 -1 35 C-1.02681 29.35419 -1.04631 23.70835 -1.0625 18.0625 C-1.0741 14.91848 -1.0857 11.77445 -1.09766 8.53516 C-1 1 -1 1 0 0 Z " fill="#363426" transform="translate(173,17)"/>
<path d="M0 0 C1.67063 0.06188 1.67063 0.06188 3.375 0.125 C3.375 0.455 3.375 0.785 3.375 1.125 C1.065 1.785 -1.245 2.445 -3.625 3.125 C-3.625 4.775 -3.625 6.425 -3.625 8.125 C-0.56772 10.48348 2.79718 11.73363 6.375 13.125 C8.86652 15.61652 8.24199 25.67665 8.4375 28.6875 C8.6141 31.37004 8.7907 34.05258 8.97266 36.81641 C9.10543 38.89824 9.2382 40.98008 9.375 43.125 C8.715 43.125 8.055 43.125 7.375 43.125 C6.01999 37.70496 6.0203 32.45594 5.8125 26.875 C5.72871 24.68359 5.64492 22.49219 5.55859 20.23438 C5.49801 18.54828 5.43742 16.86219 5.375 15.125 C3.74563 14.67125 2.11625 14.2175 0.4375 13.75 C-2.06844 12.94563 -2.06844 12.94563 -4.625 12.125 C-6.25623 8.86254 -5.79272 5.70313 -5.625 2.125 C-3.625 0.125 -3.625 0.125 0 0 Z " fill="#757167" transform="translate(73.625,95.875)"/>
<path d="M0 0 C0.99 0.33 1.98 0.66 3 1 C3 8.92 3 16.84 3 25 C5.31 25 7.62 25 10 25 C11.49297 27.98594 11.11755 30.70854 11 34 C10.67 34.66 10.34 35.32 10 36 C9.01 35.67 8.02 35.34 7 35 C7.66 35 8.32 35 9 35 C8.44968 31.56937 8.44968 31.56937 7 28 C5.02 27.01 3.04 26.02 1 25 C0.67 16.75 0.34 8.5 0 0 Z " fill="#C0BEA6" transform="translate(91,110)"/>
<path d="M0 0 C3.3 0 6.6 0 10 0 C10 1.65 10 3.3 10 5 C8.02 5.99 8.02 5.99 6 7 C5.67 7.99 5.34 8.98 5 10 C3.35 10 1.7 10 0 10 C0 6.7 0 3.4 0 0 Z " fill="#373737" transform="translate(0,0)"/>
<path d="M0 0 C0.33 0 0.66 0 1 0 C1.02681 7.97915 1.04631 15.95832 1.0625 23.9375 C1.0741 28.3809 1.0857 32.8243 1.09766 37.40234 C1 48 1 48 0 49 C-3.33618 49.14257 -6.65976 49.04228 -10 49 C-10.66 50.32 -11.32 51.64 -12 53 C-12 48 -12 48 -10 46 C-6.7 46.33 -3.4 46.66 0 47 C0 31.49 0 15.98 0 0 Z " fill="#858273" transform="translate(164,11)"/>
<path d="M0 0 C5.75 0.75 5.75 0.75 8 3 C8.80437 3.26812 9.60875 3.53625 10.4375 3.8125 C13.82258 5.3812 14.60222 6.54232 16 10 C16.4375 14.625 16.4375 14.625 16 19 C14.68 19.99 13.36 20.98 12 22 C12.0232 21.25234 12.04641 20.50469 12.07031 19.73438 C12.08836 18.74953 12.10641 17.76469 12.125 16.75 C12.1598 15.2882 12.1598 15.2882 12.19531 13.79688 C12.15705 10.6744 12.15705 10.6744 10 7 C7.61315 5.26735 7.61315 5.26735 4.875 3.8125 C3.23779 2.8965 1.60895 1.96478 0 1 C0 0.67 0 0.34 0 0 Z " fill="#C2B0CC" transform="translate(101,212)"/>
<path d="M0 0 C0.66 0.33 1.32 0.66 2 1 C-1 4 -1 4 -4.0625 4.9375 C-7.46808 5.78786 -7.46808 5.78786 -9 10 C-9.24804 13.49518 -9.40324 16.99737 -9.5 20.5 C-9.77778 30.55556 -9.77778 30.55556 -12 35 C-12.13482 30.605 -12.2319 26.20883 -12.3125 21.8125 C-12.37051 19.36457 -12.42852 16.91664 -12.48828 14.39453 C-12 8 -12 8 -9.68359 4.71484 C-6.84238 2.89928 -4.245 1.885 -1 1 C-0.67 0.67 -0.34 0.34 0 0 Z " fill="#514C4A" transform="translate(180,104)"/>
<path d="M0 0 C0 0.99 0 1.98 0 3 C-1.97666 4.69428 -3.98174 6.35549 -6 8 C-6.99 9.155 -7.98 10.31 -9 11.5 C-11.80264 14.76975 -14.69851 17.26047 -18 20 C-19.68501 21.98457 -21.35654 23.98089 -23 26 C-23.33 26 -23.66 26 -24 26 C-24 24.35 -24 22.7 -24 21 C-22.68 21 -21.36 21 -20 21 C-20 19.68 -20 18.36 -20 17 C-18.68 17 -17.36 17 -16 17 C-16 15.68 -16 14.36 -16 13 C-14.68 13 -13.36 13 -12 13 C-12 11.68 -12 10.36 -12 9 C-10.68 9 -9.36 9 -8 9 C-8 7.68 -8 6.36 -8 5 C-6.68 5 -5.36 5 -4 5 C-4 3.68 -4 2.36 -4 1 C-2.68 0.67 -1.36 0.34 0 0 Z " fill="#606060" transform="translate(244,7)"/>
<path d="M0 0 C0.66 0.33 1.32 0.66 2 1 C0.02 1.99 0.02 1.99 -2 3 C-3.69882 5.4976 -3.69882 5.4976 -5 8 C-5.33 8.33 -5.66 8.66 -6 9 C-6.24824 15.68401 -6.38518 22.36755 -6.52344 29.05469 C-7 35 -7 35 -10 38 C-12.32275 38.40047 -14.65739 38.73971 -17 39 C-19.10361 41.10361 -18.68552 45.16968 -19 48 C-19.33 48 -19.66 48 -20 48 C-20.08568 45.00122 -20.08105 41.9989 -20 39 C-17.24434 36.24434 -14.7846 36.54066 -11 36 C-7.12359 32.12359 -8.51424 25.02696 -8.375 19.875 C-8.30023 17.2943 -8.22547 14.71359 -8.14844 12.05469 C-8.09945 10.05664 -8.05047 8.05859 -8 6 C-7.01 5.67 -6.02 5.34 -5 5 C-4.34 3.68 -3.68 2.36 -3 1 C-2.01 0.67 -1.02 0.34 0 0 Z " fill="#B9B79F" transform="translate(87,58)"/>
<path d="M0 0 C0.99 0 1.98 0 3 0 C3.0825 0.94875 3.165 1.8975 3.25 2.875 C3.4975 3.90625 3.745 4.9375 4 6 C5.32 6.66 6.64 7.32 8 8 C9.5625 10.6875 9.5625 10.6875 11 14 C11.55687 15.21687 12.11375 16.43375 12.6875 17.6875 C14 21 14 21 14 24 C10.79849 20.79849 10.31762 19.19992 9 15 C6.92509 10.25061 6.92509 10.25061 3 7 C2.34 6.01 1.68 5.02 1 4 C0.67 11.59 0.34 19.18 0 27 C-0.33 27 -0.66 27 -1 27 C-1.02686 22.87503 -1.04633 18.75002 -1.0625 14.625 C-1.0741 12.32789 -1.0857 10.03078 -1.09766 7.66406 C-1 2 -1 2 0 0 Z " fill="#CBBCD3" transform="translate(177,211)"/>
<path d="M0 0 C0.99 0 1.98 0 3 0 C3 13.53 3 27.06 3 41 C1.02 41 -0.96 41 -3 41 C-5.9375 37.75 -5.9375 37.75 -8 34 C-7.67 32.68 -7.34 31.36 -7 30 C-4 33 -4 33 -3.0625 36.125 C-2.71187 37.07375 -2.36125 38.0225 -2 39 C-0.68 39.33 0.64 39.66 2 40 C2 27.13 2 14.26 2 1 C1.34 0.67 0.68 0.34 0 0 Z " fill="#EFEBF1" transform="translate(197,197)"/>
<path d="M0 0 C1.32 0 2.64 0 4 0 C4 5.94 4 11.88 4 18 C3.01 17.67 2.02 17.34 1 17 C-0.18682 13.43955 -0.0969 10.56192 -0.0625 6.8125 C-0.05348 5.5402 -0.04445 4.26789 -0.03516 2.95703 C-0.02355 1.98121 -0.01195 1.00539 0 0 Z " fill="#030204" transform="translate(123,113)"/>
<path d="M0 0 C0.66 0.33 1.32 0.66 2 1 C1.01 1.33 0.02 1.66 -1 2 C-0.97938 3.25813 -0.95875 4.51625 -0.9375 5.8125 C-1 10 -1 10 -2 13 C-2.16059 18.46019 -1.91654 23.61532 -1 29 C-5.53536 24.46464 -5.15949 21.16169 -5.1875 14.9375 C-5.20168 13.50277 -5.21586 12.06805 -5.23047 10.58984 C-5 7 -5 7 -3 5 C-2.67 3.68 -2.34 2.36 -2 1 C-1.34 0.67 -0.68 0.34 0 0 Z " fill="#AB93B8" transform="translate(125,199)"/>
<path d="M0 0 C-1.875 4.875 -1.875 4.875 -3 6 C-3.36934 8.99578 -3.70384 11.9961 -4 15 C-4.99 14.67 -5.98 14.34 -7 14 C-8.61672 10.76655 -8.1094 7.55542 -8 4 C-7.67 3.01 -7.34 2.02 -7 1 C-2.25 0 -2.25 0 0 0 Z " fill="#F0EBF2" transform="translate(100,197)"/>
<path d="M0 0 C1.32 0.33 2.64 0.66 4 1 C4 1.66 4 2.32 4 3 C4.99 3.33 5.98 3.66 7 4 C9.5392 11.6176 8.49373 19.87816 5 27 C4.34 27.33 3.68 27.66 3 28 C3.31711 27.1518 3.63422 26.30359 3.96094 25.42969 C5.02871 21.90523 5.40041 18.79329 5.625 15.125 C5.69977 13.97258 5.77453 12.82016 5.85156 11.63281 C5.90055 10.76398 5.94953 9.89516 6 9 C5.34 9 4.68 9 4 9 C3.52562 7.88625 3.05125 6.7725 2.5625 5.625 C1.74694 3.73289 0.92144 1.84287 0 0 Z " fill="#D2C5DA" transform="translate(145,201)"/>
<path d="M0 0 C3.63 0 7.26 0 11 0 C11.75 4.25 11.75 4.25 12 9 C9.85065 12.0705 8.54925 12.81692 5 14 C4.67 20.27 4.34 26.54 4 33 C3.67 33 3.34 33 3 33 C2.83818 29.75163 2.7217 26.50097 2.625 23.25 C2.55539 21.44016 2.48578 19.63031 2.41406 17.76562 C3 13 3 13 5.96094 10.60938 C6.96383 10.07828 7.96672 9.54719 9 9 C9.33 7.68 9.66 6.36 10 5 C7.27106 1.60077 7.27106 1.60077 3.3125 1.8125 C2.21937 1.87438 1.12625 1.93625 0 2 C0 1.34 0 0.68 0 0 Z " fill="#A8A493" transform="translate(89,56)"/>
<path d="M0 0 C0.33 1.32 0.66 2.64 1 4 C0.67 4.33 0.34 4.66 0 5 C-0.2998 10.69629 0.24992 15.56553 2 21 C4.70458 24.33083 4.70458 24.33083 8.4375 24.375 C12.35113 24.27098 12.35113 24.27098 16 21 C15.67 22.65 15.34 24.3 15 26 C4.98067 26.62189 4.98067 26.62189 1.4375 24.375 C-2.44593 17.95889 -2.69724 11.36206 -2 4 C-1.34 2.68 -0.68 1.36 0 0 Z " fill="#B49CC0" transform="translate(132,206)"/>
<path d="M0 0 C0.66 0 1.32 0 2 0 C2.16296 4.88881 2.22358 7.55283 0 12 C-3.00314 13.50157 -5.79068 13.09281 -9.125 13.0625 C-10.40633 13.05348 -11.68766 13.04445 -13.00781 13.03516 C-14.48895 13.01775 -14.48895 13.01775 -16 13 C-16.33 12.34 -16.66 11.68 -17 11 C-11.72 10.34 -6.44 9.68 -1 9 C-0.67 6.03 -0.34 3.06 0 0 Z " fill="#F8F5F9" transform="translate(110,223)"/>
<path d="M0 0 C4.1875 -0.375 4.1875 -0.375 9 0 C14.03752 4.58974 18.04717 11.43139 20 18 C19.67 19.32 19.34 20.64 19 22 C17 20 17 20 16.875 16.875 C16.91625 15.92625 16.9575 14.9775 17 14 C16.01 13.67 15.02 13.34 14 13 C12.63365 10.3501 11.29969 7.68323 10 5 C9.34 4.67 8.68 4.34 8 4 C8 3.01 8 2.02 8 1 C2.98465 1.3296 2.98465 1.3296 -1 4 C-0.67 2.68 -0.34 1.36 0 0 Z " fill="#A387B3" transform="translate(168,191)"/>
<path d="M0 0 C0.99 0.66 1.98 1.32 3 2 C2.25 7.75 2.25 7.75 0 10 C-1.32 10 -2.64 10 -4 10 C-4 9.34 -4 8.68 -4 8 C-5.11375 7.77312 -6.2275 7.54625 -7.375 7.3125 C-11 6 -11 6 -12.4375 3.375 C-12.62313 2.59125 -12.80875 1.8075 -13 1 C-12.34 1 -11.68 1 -11 1 C-10.34 1.99 -9.68 2.98 -9 4 C-6.58393 4.79798 -6.58393 4.79798 -3.875 5.1875 C-1.46187 5.58969 -1.46187 5.58969 1 6 C0.67 4.02 0.34 2.04 0 0 Z " fill="#595452" transform="translate(96,138)"/>
<path d="M0 0 C0.66 0 1.32 0 2 0 C2 8.58 2 17.16 2 26 C3.32 26.66 4.64 27.32 6 28 C8.23774 30.85505 9.09306 32.16247 8.6875 35.8125 C8.46062 36.53437 8.23375 37.25625 8 38 C7.34 38 6.68 38 6 38 C5.59781 35.83437 5.59781 35.83437 5.1875 33.625 C4.51273 28.8594 4.51273 28.8594 1 27 C0.61995 22.46846 0.41872 17.9212 0.3125 13.375 C0.24676 10.88711 0.18102 8.39922 0.11328 5.83594 C0.0759 3.91008 0.03852 1.98422 0 0 Z " fill="#7A786A" transform="translate(159,68)"/>
<path d="M0 0 C0.33 0.99 0.66 1.98 1 3 C0.5398 3.89977 0.07961 4.79953 -0.39453 5.72656 C-2.22648 9.46178 -2.49245 12.23987 -2.6875 16.375 C-2.78611 18.24285 -2.78611 18.24285 -2.88672 20.14844 C-2.9241 21.08945 -2.96148 22.03047 -3 23 C-3.66 22.67 -4.32 22.34 -5 22 C-5.02697 19.39589 -5.04638 16.7917 -5.0625 14.1875 C-5.0741 12.7373 -5.0857 11.28711 -5.09766 9.79297 C-5 6 -5 6 -4 3 C-2.68 2.01 -1.36 1.02 0 0 Z " fill="#FDFDFE" transform="translate(130,201)"/>
<path d="M0 0 C1.32 0.33 2.64 0.66 4 1 C4.33 3.31 4.66 5.62 5 8 C5.99 8.33 6.98 8.66 8 9 C7.67 9.66 7.34 10.32 7 11 C4 9 4 9 3.3125 5.875 C3.20937 4.92625 3.10625 3.9775 3 3 C2.01 3 1.02 3 0 3 C-0.33 11.25 -0.66 19.5 -1 28 C-1.33 28 -1.66 28 -2 28 C-2.0538 23.89597 -2.0927 19.79175 -2.125 15.6875 C-2.1482 13.40199 -2.17141 11.11648 -2.19531 8.76172 C-2 3 -2 3 0 0 Z " fill="#E7E0EA" transform="translate(177,208)"/>
<path d="M0 0 C0.66 0.33 1.32 0.66 2 1 C1.34 2.32 0.68 3.64 0 5 C-0.42125 10.30771 -0.38029 13.77463 3 18 C4.32 18.99 5.64 19.98 7 21 C2.91928 20.44855 2.08669 20.08669 -1 17 C-1 16.34 -1 15.68 -1 15 C-1.99 15 -2.98 15 -4 15 C-4.38892 8.58281 -4.13148 5.03524 0 0 Z " fill="#D0C2D8" transform="translate(93,196)"/>
<path d="M0 0 C1.32 0.99 2.64 1.98 4 3 C4.49609 7.08984 4.49609 7.08984 4.4375 11.9375 C4.43621 13.53465 4.43492 15.1318 4.43359 16.77734 C4 21 4 21 1 25 C-2.43612 25.5983 -5.48389 25.22539 -9 25 C-10 24 -10 24 -10.0625 20.9375 C-10.04188 19.96812 -10.02125 18.99875 -10 18 C-9.34 19.32 -8.68 20.64 -8 22 C-6.81576 23.41577 -6.81576 23.41577 -3.4375 23.0625 C-1.73594 23.03156 -1.73594 23.03156 0 23 C2.13707 18.72585 2.26961 16.57076 2.25 11.875 C2.25773 10.01488 2.25773 10.01488 2.26562 8.11719 C2.32867 4.89899 2.32867 4.89899 0 3 C0 2.01 0 1.02 0 0 Z " fill="#C0BCA5" transform="translate(129,109)"/>
<path d="M0 0 C0.99 0 1.98 0 3 0 C4.67193 6.68773 4.45795 13.58006 4.71875 20.44922 C4.4772 24.69792 4.4772 24.69792 6 26 C6 27.65 6 29.3 6 31 C5.34 31 4.68 31 4 31 C0.86912 24.73825 1.96189 14.93068 1.5 8.03125 C1.4203 2.53077 1.4203 2.53077 0 0 Z " fill="#2C2829" transform="translate(79,108)"/>
<path d="M0 0 C4.5625 0.125 4.5625 0.125 6.5625 1.125 C6.75781 8.74219 6.75781 8.74219 6.5625 11.125 C4.5625 13.125 4.5625 13.125 0.4375 13.25 C-0.84125 13.20875 -2.12 13.1675 -3.4375 13.125 C-3.4375 12.795 -3.4375 12.465 -3.4375 12.125 C-1.73594 11.90844 -1.73594 11.90844 0 11.6875 C3.37027 11.51329 3.37027 11.51329 4.5625 10.125 C4.81255 7.16683 4.81255 7.16683 4.5625 4.125 C2.66495 1.77526 2.66495 1.77526 -0.5625 2 C-1.51125 2.04125 -2.46 2.0825 -3.4375 2.125 C-3.7675 5.095 -4.0975 8.065 -4.4375 11.125 C-5.0975 10.465 -5.7575 9.805 -6.4375 9.125 C-5.74803 0.16192 -5.74803 0.16192 0 0 Z " fill="#68635D" transform="translate(125.4375,79.875)"/>
<path d="M0 0 C0 0.99 0 1.98 0 3 C-1.97666 4.69428 -3.98174 6.35549 -6 8 C-8.0066 10.32766 -10.00714 12.66056 -12 15 C-13.32 15.99 -14.64 16.98 -16 18 C-16 16.35 -16 14.7 -16 13 C-14.68 13 -13.36 13 -12 13 C-12 11.68 -12 10.36 -12 9 C-10.68 9 -9.36 9 -8 9 C-8 7.68 -8 6.36 -8 5 C-6.68 5 -5.36 5 -4 5 C-4 3.68 -4 2.36 -4 1 C-2.68 0.67 -1.36 0.34 0 0 Z " fill="#626262" transform="translate(252,159)"/>
<path d="M0 0 C0 0.99 0 1.98 0 3 C-1.97666 4.69428 -3.98174 6.35549 -6 8 C-8.0066 10.32766 -10.00714 12.66056 -12 15 C-13.32 15.99 -14.64 16.98 -16 18 C-16 16.35 -16 14.7 -16 13 C-14.68 13 -13.36 13 -12 13 C-12 11.68 -12 10.36 -12 9 C-10.68 9 -9.36 9 -8 9 C-8 7.68 -8 6.36 -8 5 C-6.68 5 -5.36 5 -4 5 C-4 3.68 -4 2.36 -4 1 C-2.68 0.67 -1.36 0.34 0 0 Z " fill="#626262" transform="translate(252,79)"/>
<path d="M0 0 C2.8125 -0.1875 2.8125 -0.1875 6 0 C9.57576 3.57576 9.96455 6.14137 11 11 C10.01 11 9.02 11 8 11 C7.34 9.68 6.68 8.36 6 7 C5.34 6.67 4.68 6.34 4 6 C4 4.68 4 3.36 4 2 C2.68 1.67 1.36 1.34 0 1 C0 0.67 0 0.34 0 0 Z " fill="#FAF9FB" transform="translate(145,198)"/>
<path d="M0 0 C1.65 0 3.3 0 5 0 C5 0.66 5 1.32 5 2 C6.32 2.66 7.64 3.32 9 4 C10.05353 6.30966 11.05719 8.64298 12 11 C12.66 11.33 13.32 11.66 14 12 C13.67 13.32 13.34 14.64 13 16 C9.86817 13.18135 8.49739 10.89322 7 7 C4.16671 4.16671 2.64553 3.28086 -1 2 C-0.67 1.34 -0.34 0.68 0 0 Z " fill="#CCBDD5" transform="translate(171,193)"/>
<path d="M0 0 C2.25246 2.68842 3.88214 4.64642 5 8 C10.61 8.66 16.22 9.32 22 10 C21.67 10.66 21.34 11.32 21 12 C18.0003 12.04225 14.99972 12.04109 12 12 C11.67 11.67 11.34 11.34 11 11 C9.90688 10.93813 8.81375 10.87625 7.6875 10.8125 C4 10 4 10 1.5625 7.1875 C0 4 0 4 0 0 Z " fill="#CDBED5" transform="translate(124,228)"/>
<path d="M0 0 C0.33 0 0.66 0 1 0 C1 12.21 1 24.42 1 37 C-0.485 37.495 -0.485 37.495 -2 38 C-1.67 36.35 -1.34 34.7 -1 33 C-0.76999 27.39742 -0.58899 21.79276 -0.4375 16.1875 C-0.35371 13.1698 -0.26992 10.15211 -0.18359 7.04297 C-0.12301 4.71879 -0.06242 2.39461 0 0 Z " fill="#A48AB3" transform="translate(70,193)"/>
<path d="M0 0 C4 2 4 2 5 4 C5.84563 4.495 6.69125 4.99 7.5625 5.5 C8.36687 5.995 9.17125 6.49 10 7 C10 7.66 10 8.32 10 9 C11.32 9.66 12.64 10.32 14 11 C13.67 11.66 13.34 12.32 13 13 C2.5875 7.4875 2.5875 7.4875 0 4 C0 2.68 0 1.36 0 0 Z " fill="#B4AD82" transform="translate(187,31)"/>
<path d="M0 0 C0 0.99 0 1.98 0 3 C-1.97342 4.69806 -3.97829 6.35974 -6 8 C-7.70647 9.96615 -9.38527 11.95784 -11 14 C-11.99 13.67 -12.98 13.34 -14 13 C-13.67 11.68 -13.34 10.36 -13 9 C-11.35 9 -9.7 9 -8 9 C-8 7.68 -8 6.36 -8 5 C-6.68 5 -5.36 5 -4 5 C-4 3.68 -4 2.36 -4 1 C-2.68 0.67 -1.36 0.34 0 0 Z " fill="#626262" transform="translate(20,231)"/>
<path d="M0 0 C0.96809 0.03738 1.93617 0.07477 2.93359 0.11328 C3.90426 0.13777 4.87492 0.16227 5.875 0.1875 C8.37109 0.42578 8.37109 0.42578 10.37109 1.42578 C10.37109 2.08578 10.37109 2.74578 10.37109 3.42578 C12.84609 3.92078 12.84609 3.92078 15.37109 4.42578 C15.04109 5.08578 14.71109 5.74578 14.37109 6.42578 C13.19547 5.93078 12.01984 5.43578 10.80859 4.92578 C4.97289 2.95315 0.31239 2.98547 -5.62891 4.42578 C-2.62891 0.42578 -2.62891 0.42578 0 0 Z " fill="#BFACC9" transform="translate(137.62890625,191.57421875)"/>
<path d="M0 0 C0 0.99 0 1.98 0 3 C-1.97342 4.69806 -3.97829 6.35974 -6 8 C-7.70647 9.96615 -9.38527 11.95784 -11 14 C-11.99 13.67 -12.98 13.34 -14 13 C-13.67 11.68 -13.34 10.36 -13 9 C-11.35 9 -9.7 9 -8 9 C-8 7.68 -8 6.36 -8 5 C-6.68 5 -5.36 5 -4 5 C-4 3.68 -4 2.36 -4 1 C-2.68 0.67 -1.36 0.34 0 0 Z " fill="#626262" transform="translate(20,151)"/>
<path d="M0 0 C0 0.99 0 1.98 0 3 C-1.97342 4.69806 -3.97829 6.35974 -6 8 C-7.70647 9.96615 -9.38527 11.95784 -11 14 C-11.99 13.67 -12.98 13.34 -14 13 C-13.67 11.68 -13.34 10.36 -13 9 C-11.35 9 -9.7 9 -8 9 C-8 7.68 -8 6.36 -8 5 C-6.68 5 -5.36 5 -4 5 C-4 3.68 -4 2.36 -4 1 C-2.68 0.67 -1.36 0.34 0 0 Z " fill="#626262" transform="translate(20,71)"/>
<path d="M0 0 C0 6.22732 -1.85729 7.59837 -6 12 C-7.32 11.67 -8.64 11.34 -10 11 C-9.19563 10.07188 -8.39125 9.14375 -7.5625 8.1875 C-4.88533 5.23589 -4.88533 5.23589 -4 2 C-1 0 -1 0 0 0 Z " fill="#FBFAFB" transform="translate(156,223)"/>
<path d="M0 0 C1.17176 0.0348 2.34352 0.06961 3.55078 0.10547 C5.32002 0.14607 5.32002 0.14607 7.125 0.1875 C8.02863 0.2223 8.93227 0.25711 9.86328 0.29297 C9.86328 0.62297 9.86328 0.95297 9.86328 1.29297 C7.35677 1.45573 4.85026 1.61849 2.34375 1.78125 C-0.53076 2.13735 -0.53076 2.13735 -3.13672 5.29297 C-2.87576 7.96776 -2.33624 9.89392 -1.13672 12.29297 C-2.45672 11.63297 -3.77672 10.97297 -5.13672 10.29297 C-6.07422 6.85547 -6.07422 6.85547 -6.13672 3.29297 C-3.13672 0.29297 -3.13672 0.29297 0 0 Z " fill="#C8B7D0" transform="translate(102.13671875,199.70703125)"/>
<path d="M0 0 C2.81808 4.22712 2.35188 7.69915 2.5 12.75 C2.68035 18.86376 3.03172 24.19039 5 30 C3.68 29.67 2.36 29.34 1 29 C0.67 19.43 0.34 9.86 0 0 Z " fill="#2A2729" transform="translate(87,107)"/>
<path d="M0 0 C4.99438 1.2486 5.81913 3.06178 9 7 C10.96615 8.70647 12.95784 10.38527 15 12 C14.67 13.32 14.34 14.64 14 16 C13.67 15.01 13.34 14.02 13 13 C11.68 12.34 10.36 11.68 9 11 C9 10.34 9 9.68 9 9 C8.01 8.67 7.02 8.34 6 8 C3.79823 5.46609 1.95431 2.73603 0 0 Z " fill="#484534" transform="translate(178,20)"/>
<path d="M0 0 C0 0.99 0 1.98 0 3 C-1.97342 4.69806 -3.97829 6.35974 -6 8 C-7.68501 9.98457 -9.35654 11.98089 -11 14 C-11.33 14 -11.66 14 -12 14 C-12 12.35 -12 10.7 -12 9 C-10.68 9 -9.36 9 -8 9 C-8 7.68 -8 6.36 -8 5 C-6.68 5 -5.36 5 -4 5 C-4 3.68 -4 2.36 -4 1 C-2.68 0.67 -1.36 0.34 0 0 Z " fill="#646464" transform="translate(252,239)"/>
<path d="M0 0 C1.0957 0.00902 2.19141 0.01805 3.32031 0.02734 C4.16336 0.03895 5.00641 0.05055 5.875 0.0625 C5.875 0.7225 5.875 1.3825 5.875 2.0625 C4.73611 1.99289 4.73611 1.99289 3.57422 1.92188 C2.58035 1.88578 1.58648 1.84969 0.5625 1.8125 C-0.9167 1.74289 -0.9167 1.74289 -2.42578 1.67188 C-5.67701 1.81821 -5.67701 1.81821 -8.125 6.0625 C-8.125 7.7125 -8.125 9.3625 -8.125 11.0625 C-9.115 10.7325 -10.105 10.4025 -11.125 10.0625 C-11.125 8.4125 -11.125 6.7625 -11.125 5.0625 C-10.465 4.7325 -9.805 4.4025 -9.125 4.0625 C-8.795 3.0725 -8.465 2.0825 -8.125 1.0625 C-5.36048 -0.31976 -3.07886 -0.03275 0 0 Z " fill="#C5C3AA" transform="translate(126.125,78.9375)"/>
<path d="M0 0 C0.33 0 0.66 0 1 0 C1.04898 1.81887 1.09797 3.63773 1.14844 5.51172 C1.2232 7.87973 1.29797 10.24773 1.375 12.6875 C1.44461 15.04262 1.51422 17.39773 1.58594 19.82422 C1.67691 25.93769 1.67691 25.93769 4 31 C3.01 30.67 2.02 30.34 1 30 C-1.24427 25.51147 -0.0843 18.71409 -0.0625 13.875 C-0.05348 11.2943 -0.04445 8.71359 -0.03516 6.05469 C-0.02355 4.05664 -0.01195 2.05859 0 0 Z " fill="#BEBCA2" transform="translate(159,69)"/>
<path d="M0 0 C0.33 0 0.66 0 1 0 C1 8.25 1 16.5 1 25 C-0.98 25.99 -0.98 25.99 -3 27 C-2.68289 25.88625 -2.36578 24.7725 -2.03906 23.625 C-0.9287 18.68263 -0.58573 14.05753 -0.375 9 C-0.30023 7.30875 -0.22547 5.6175 -0.14844 3.875 C-0.09945 2.59625 -0.05047 1.3175 0 0 Z " fill="#D0CEB3" transform="translate(93,70)"/>
<path d="M0 0 C0 3 0 3 -1.58594 5.16016 C-4.74604 7.56859 -6.68936 7.50413 -10.625 7.4375 C-12.3459 7.43557 -12.3459 7.43557 -14.10156 7.43359 C-15.53629 7.21896 -15.53629 7.21896 -17 7 C-17.66 6.01 -18.32 5.02 -19 4 C-18.01 4.33 -17.02 4.66 -16 5 C-8.84966 5.72715 -5.63729 4.02664 0 0 Z " fill="#B69FC3" transform="translate(112,234)"/>
<path d="M0 0 C0.66 1.65 1.32 3.3 2 5 C1.01 4.67 0.02 4.34 -1 4 C-1 3.34 -1 2.68 -1 2 C-5.99163 2.47996 -7.85036 2.88777 -12 6 C-11.67 4.35 -11.34 2.7 -11 1 C-7.24464 -0.25179 -3.93585 -0.06452 0 0 Z " fill="#B6A0C2" transform="translate(145,200)"/>
<path d="M0 0 C2 1 2 1 3.125 4.0625 C3.41375 5.03188 3.7025 6.00125 4 7 C3.01 6.67 2.02 6.34 1 6 C1 12.27 1 18.54 1 25 C0.67 25 0.34 25 0 25 C0 16.75 0 8.5 0 0 Z " fill="#9A7DAA" transform="translate(178,214)"/>
<path d="M0 0 C0.66 0.66 1.32 1.32 2 2 C-3.61 2.66 -9.22 3.32 -15 4 C-12.18654 -1.62692 -5.21983 -0.26768 0 0 Z " fill="#E1D8E5" transform="translate(109,194)"/>
<path d="M0 0 C1.32 0 2.64 0 4 0 C3.68289 0.63293 3.36578 1.26586 3.03906 1.91797 C1.64059 6.06608 1.56348 9.94614 1.375 14.3125 C1.30023 15.93801 1.22547 17.56352 1.14844 19.23828 C1.09945 20.47965 1.05047 21.72102 1 23 C0.67 23 0.34 23 0 23 C0 15.41 0 7.82 0 0 Z " fill="#EEEEC9" transform="translate(174,110)"/>
<path d="M0 0 C0.33 0 0.66 0 1 0 C1.72028 6.39247 2.10373 12.56889 2 19 C-0.87002 13.25995 -1.17834 9.42038 -1 3 C-0.67 2.01 -0.34 1.02 0 0 Z " fill="#DDD3E2" transform="translate(123,209)"/>
<path d="M0 0 C2 3 2 3 2 5 C2.99 5.33 3.98 5.66 5 6 C4.67 8.31 4.34 10.62 4 13 C3.34 11.68 2.68 10.36 2 9 C1.34 8.67 0.68 8.34 0 8 C-1.27536 2.55072 -1.27536 2.55072 0 0 Z " fill="#F6F5F6" transform="translate(182,208)"/>
<path d="M0 0 C3 1 3 1 4 3 C3.01 3.495 3.01 3.495 2 4 C1.67 4.99 1.34 5.98 1 7 C-0.65 7 -2.3 7 -4 7 C-4 5.68 -4 4.36 -4 3 C-3.01 3 -2.02 3 -1 3 C-0.67 2.01 -0.34 1.02 0 0 Z " fill="#3B3B3B" transform="translate(4,243)"/>
<path d="M0 0 C3 1 3 1 4 3 C3.01 3.495 3.01 3.495 2 4 C1.67 4.99 1.34 5.98 1 7 C-0.65 7 -2.3 7 -4 7 C-4 5.68 -4 4.36 -4 3 C-3.01 3 -2.02 3 -1 3 C-0.67 2.01 -0.34 1.02 0 0 Z " fill="#3B3B3B" transform="translate(4,163)"/>
<path d="M0 0 C0 4 0 8 0 12 C-1.32 11.67 -2.64 11.34 -4 11 C-4.25 7.1875 -4.25 7.1875 -4 3 C-2.68 2.01 -1.36 1.02 0 0 Z " fill="#3A3636" transform="translate(87,95)"/>
<path d="M0 0 C3 1 3 1 4 3 C3.01 3.495 3.01 3.495 2 4 C1.67 4.99 1.34 5.98 1 7 C-0.65 7 -2.3 7 -4 7 C-4 5.68 -4 4.36 -4 3 C-3.01 3 -2.02 3 -1 3 C-0.67 2.01 -0.34 1.02 0 0 Z " fill="#3B3B3B" transform="translate(4,83)"/>
<path d="M0 0 C0.33 0.66 0.66 1.32 1 2 C0.67 2.99 0.34 3.98 0 5 C-0.16059 10.46019 0.08346 15.61532 1 21 C-2 18 -2 18 -2.36328 14.27734 C-2.34652 12.8452 -2.32977 11.41305 -2.3125 9.9375 C-2.30863 8.50277 -2.30477 7.06805 -2.30078 5.58984 C-2 2 -2 2 0 0 Z " fill="#C1AFCB" transform="translate(123,207)"/>
<path d="M0 0 C2.4393 1.92576 4.80091 3.80091 7 6 C5.02 6.66 3.04 7.32 1 8 C-0.32 6.35 -1.64 4.7 -3 3 C-2.34 3 -1.68 3 -1 3 C-0.67 2.01 -0.34 1.02 0 0 Z " fill="#EFEBF1" transform="translate(96,208)"/>
<path d="M0 0 C0.33 0 0.66 0 1 0 C1.33 4.29 1.66 8.58 2 13 C-0.86059 11.5697 -1.63714 9.85552 -3 7 C-2.6875 4.1875 -2.6875 4.1875 -2 2 C-1.34 2 -0.68 2 0 2 C0 1.34 0 0.68 0 0 Z " fill="#BCB9A3" transform="translate(89,97)"/>
<path d="M0 0 C0.66 0 1.32 0 2 0 C2 0.66 2 1.32 2 2 C2.66 2.33 3.32 2.66 4 3 C3.01 3.495 3.01 3.495 2 4 C1.67 4.99 1.34 5.98 1 7 C-0.65 7 -2.3 7 -4 7 C-4 5.68 -4 4.36 -4 3 C-3.01 3 -2.02 3 -1 3 C-0.67 2.01 -0.34 1.02 0 0 Z " fill="#3B3B3B" transform="translate(4,3)"/>
<path d="M0 0 C5.37803 0.32594 8.34346 3.27176 12 7 C12 8.65 12 10.3 12 12 C11.34 10.68 10.68 9.36 10 8 C7.97142 5.62842 7.97142 5.62842 4 5 C4 4.34 4 3.68 4 3 C3.34 3 2.68 3 2 3 C2 2.34 2 1.68 2 1 C1.34 0.67 0.68 0.34 0 0 Z " fill="#B5A0C0" transform="translate(96,217)"/>
<path d="M0 0 C1.485 0.99 1.485 0.99 3 2 C5.60714 2.3175 5.60714 2.3175 8.4375 2.25 C9.38496 2.25516 10.33242 2.26031 11.30859 2.26562 C14.33859 2.12837 14.33859 2.12837 18 0 C17.34 1.32 16.68 2.64 16 4 C10.72 4 5.44 4 0 4 C0 2.68 0 1.36 0 0 Z " fill="#A588B4" transform="translate(132,238)"/>
<path d="M0 0 C0.99 0 1.98 0 3 0 C1 4 1 4 -2 6 C-5.35316 6.26403 -8.63059 6.08752 -12 6 C-12 4.35 -12 2.7 -12 1 C-11.67 2.32 -11.34 3.64 -11 5 C-7.1068 4.81587 -7.1068 4.81587 -3 4 C-2.01 2.68 -1.02 1.36 0 0 Z " fill="#484441" transform="translate(165,139)"/>
<path d="M0 0 C5.45455 0.45455 5.45455 0.45455 8 3 C6.72125 3.0825 5.4425 3.165 4.125 3.25 C2.76375 3.4975 1.4025 3.745 0 4 C-0.66 5.32 -1.32 6.64 -2 8 C-2.125 5.125 -2.125 5.125 -2 2 C-1.34 1.34 -0.68 0.68 0 0 Z " fill="#A78CB5" transform="translate(53,228)"/>
<path d="M0 0 C0.99 0 1.98 0 3 0 C2.625 2.4375 2.625 2.4375 2 5 C1.01 5.495 1.01 5.495 0 6 C0 6.99 0 7.98 0 9 C-1.32 8.34 -2.64 7.68 -4 7 C-2.68 4.69 -1.36 2.38 0 0 Z " fill="#5C5C5C" transform="translate(208,20)"/>
<path d="M0 0 C0.33 0 0.66 0 1 0 C1 4.62 1 9.24 1 14 C1.99 14 2.98 14 4 14 C4 14.66 4 15.32 4 16 C-0.75 15.25 -0.75 15.25 -3 13 C-2.01 13 -1.02 13 0 13 C0 8.71 0 4.42 0 0 Z " fill="#2F2F2F" transform="translate(230,240)"/>
<path d="M0 0 C4.21437 3.16077 4.71279 4.17295 6 9 C7.65 9 9.3 9 11 9 C11 9.66 11 10.32 11 11 C8.3125 11.4375 8.3125 11.4375 5 11 C1.57596 7.12934 0 5.23254 0 0 Z " fill="#E3DAE7" transform="translate(189,227)"/>
<path d="M0 0 C1 3 1 3 -0.25 6.125 C-2 9 -2 9 -5 10 C-4.75 6.6875 -4.75 6.6875 -4 3 C-2.68 2.01 -1.36 1.02 0 0 Z " fill="#FBFBFC" transform="translate(130,201)"/>
<path d="M0 0 C3.12613 2.9616 5.04784 5.09567 7 9 C6.67 10.32 6.34 11.64 6 13 C5.38125 11.70063 4.7625 10.40125 4.125 9.0625 C2.51071 5.01149 2.51071 5.01149 0 4 C0 2.68 0 1.36 0 0 Z " fill="#AC93BA" transform="translate(153,196)"/>
<path d="M0 0 C0.66 0 1.32 0 2 0 C1.6875 2.375 1.6875 2.375 1 5 C0.01 5.66 -0.98 6.32 -2 7 C-3.32 6.67 -4.64 6.34 -6 6 C-5.19563 5.38125 -4.39125 4.7625 -3.5625 4.125 C-0.96125 2.25836 -0.96125 2.25836 0 0 Z " fill="#B4B29D" transform="translate(168,139)"/>
<path d="M0 0 C3.23547 2.15698 4.37844 3.51365 6 7 C5.6875 9.8125 5.6875 9.8125 5 12 C4.34 12 3.68 12 3 12 C2.69063 10.57688 2.38125 9.15375 2.0625 7.6875 C1.13681 3.24595 1.13681 3.24595 0 0 Z " fill="#464041" transform="translate(162,94)"/>
<path d="M0 0 C0.99 0 1.98 0 3 0 C2.8125 2.3125 2.8125 2.3125 2 5 C-0.5625 6.8125 -0.5625 6.8125 -3 8 C-2.67 6.35 -2.34 4.7 -2 3 C-1.34 3 -0.68 3 0 3 C0 2.01 0 1.02 0 0 Z " fill="#515151" transform="translate(227,0)"/>
<path d="M0 0 C0.99 0 1.98 0 3 0 C2.3125 2.4375 2.3125 2.4375 1 5 C-1.625 5.8125 -1.625 5.8125 -4 6 C-4 5.01 -4 4.02 -4 3 C-3.01 3 -2.02 3 -1 3 C-0.67 2.01 -0.34 1.02 0 0 Z " fill="#525252" transform="translate(4,224)"/>
<path d="M0 0 C4.87363 0.45336 7.39042 1.70892 11 5 C10.67 5.66 10.34 6.32 10 7 C8.33074 6.02527 6.66464 5.0451 5 4.0625 C4.07188 3.51723 3.14375 2.97195 2.1875 2.41016 C1.46563 1.9448 0.74375 1.47945 0 1 C0 0.67 0 0.34 0 0 Z " fill="#C7B9D0" transform="translate(101,212)"/>
<path d="M0 0 C0.99 0 1.98 0 3 0 C2.3125 2.4375 2.3125 2.4375 1 5 C-1.625 5.8125 -1.625 5.8125 -4 6 C-4 5.01 -4 4.02 -4 3 C-3.01 3 -2.02 3 -1 3 C-0.67 2.01 -0.34 1.02 0 0 Z " fill="#525252" transform="translate(4,144)"/>
<path d="M0 0 C0.99 0 1.98 0 3 0 C2.3125 2.4375 2.3125 2.4375 1 5 C-1.625 5.8125 -1.625 5.8125 -4 6 C-4 5.01 -4 4.02 -4 3 C-3.01 3 -2.02 3 -1 3 C-0.67 2.01 -0.34 1.02 0 0 Z " fill="#525252" transform="translate(4,64)"/>
<path d="M0 0 C0 0.66 0 1.32 0 2 C-0.9075 2.28875 -1.815 2.5775 -2.75 2.875 C-6.19166 3.98747 -6.19166 3.98747 -10 6 C-8.44756 -0.20975 -5.83935 -0.25953 0 0 Z " fill="#D1CFB3" transform="translate(129,107)"/>
<path d="M0 0 C2.97 0.495 2.97 0.495 6 1 C6 1.66 6 2.32 6 3 C7.98 2.34 9.96 1.68 12 1 C11.67 1.99 11.34 2.98 11 4 C7.1875 4.25 7.1875 4.25 3 4 C2.01 2.68 1.02 1.36 0 0 Z " fill="#BFBBA6" transform="translate(86,145)"/>
<path d="M0 0 C2.25246 2.68842 3.88214 4.64642 5 8 C5.99 8.33 6.98 8.66 8 9 C6.68 9.33 5.36 9.66 4 10 C0 4.5 0 4.5 0 0 Z " fill="#B7A1C3" transform="translate(124,228)"/>
<path d="M0 0 C1.98 0.99 1.98 0.99 4 2 C4 2.66 4 3.32 4 4 C5.32 4.66 6.64 5.32 8 6 C7.67 6.66 7.34 7.32 7 8 C4.0625 6.25 4.0625 6.25 1 4 C0.67 2.68 0.34 1.36 0 0 Z " fill="#7D795A" transform="translate(193,36)"/>
<path d="M0 0 C1.32 0.33 2.64 0.66 4 1 C6.08879 4.68025 6.06127 5.75493 5 10 C3 8 3 8 2.875 4.875 C2.91625 3.92625 2.9575 2.9775 3 2 C2.01 1.67 1.02 1.34 0 1 C0 0.67 0 0.34 0 0 Z " fill="#AF97BB" transform="translate(182,203)"/>
<path d="M0 0 C0.33 0 0.66 0 1 0 C2.5106 4.05973 3 6.54611 3 11 C2.34 11 1.68 11 1 11 C-0.72238 7.55524 -0.05401 3.78093 0 0 Z " fill="#292328" transform="translate(82,128)"/>
<path d="M0 0 C0.66 1.32 1.32 2.64 2 4 C3.87597 7.35143 3.87597 7.35143 8 9 C5.69 9 3.38 9 1 9 C0.67 6.03 0.34 3.06 0 0 Z " fill="#B1AE9A" transform="translate(151,60)"/>
<path d="M0 0 C1.32 0 2.64 0 4 0 C4 1.65 4 3.3 4 5 C1.03 4.505 1.03 4.505 -2 4 C-1.34 3.67 -0.68 3.34 0 3 C0 2.01 0 1.02 0 0 Z " fill="#434343" transform="translate(246,0)"/>
<path d="M0 0 C0.33 0 0.66 0 1 0 C1 1.98 1 3.96 1 6 C0.34 6 -0.32 6 -1 6 C-1 6.66 -1 7.32 -1 8 C-1.66 8 -2.32 8 -3 8 C-3 6.35 -3 4.7 -3 3 C-2.01 3 -1.02 3 0 3 C0 2.01 0 1.02 0 0 Z " fill="#3B3B3B" transform="translate(239,248)"/>
<path d="M0 0 C0.33 0 0.66 0 1 0 C1.33 2.97 1.66 5.94 2 9 C1.01 8.67 0.02 8.34 -1 8 C-1.04242 5.66705 -1.04093 3.33297 -1 1 C-0.67 0.67 -0.34 0.34 0 0 Z " fill="#FDFCFD" transform="translate(94,203)"/>
<path d="M0 0 C3.63 0 7.26 0 11 0 C11 0.99 11 1.98 11 3 C8.55594 2.81437 8.55594 2.81437 6.0625 2.625 C5.14598 2.55539 4.22945 2.48578 3.28516 2.41406 C2.154 2.2091 2.154 2.2091 1 2 C0.67 1.34 0.34 0.68 0 0 Z " fill="#B1AD9B" transform="translate(89,56)"/>
<path d="M0 0 C0 0.99 0 1.98 0 3 C-0.66 3 -1.32 3 -2 3 C-2.33 3.66 -2.66 4.32 -3 5 C-3.66 5 -4.32 5 -5 5 C-5 3.68 -5 2.36 -5 1 C-3 0 -3 0 0 0 Z " fill="#3A3A3A" transform="translate(256,235)"/>
<path d="M0 0 C3.05402 1.52701 3.65869 3.95158 5 7 C5 7.99 5 8.98 5 10 C1 7 1 7 0.25 3.3125 C0.1675 2.21938 0.085 1.12625 0 0 Z " fill="#B09ABC" transform="translate(182,219)"/>
<path d="M0 0 C-0.33 0.99 -0.66 1.98 -1 3 C-3.5625 4.1875 -3.5625 4.1875 -6 5 C-6 3.68 -6 2.36 -6 1 C-2 0 -2 0 0 0 Z " fill="#FCFAFC" transform="translate(100,197)"/>
<path d="M0 0 C0 0.99 0 1.98 0 3 C-0.66 3 -1.32 3 -2 3 C-2.33 3.66 -2.66 4.32 -3 5 C-3.66 5 -4.32 5 -5 5 C-5 3.68 -5 2.36 -5 1 C-3 0 -3 0 0 0 Z " fill="#3A3A3A" transform="translate(256,155)"/>
<path d="M0 0 C0 0.99 0 1.98 0 3 C-0.66 3 -1.32 3 -2 3 C-2.33 3.66 -2.66 4.32 -3 5 C-3.66 5 -4.32 5 -5 5 C-5 3.68 -5 2.36 -5 1 C-3 0 -3 0 0 0 Z " fill="#3A3A3A" transform="translate(256,75)"/>
<path d="M0 0 C2.31 0 4.62 0 7 0 C7 0.99 7 1.98 7 3 C5.02 3 3.04 3 1 3 C0.67 2.01 0.34 1.02 0 0 Z " fill="#BDA9C8" transform="translate(169,238)"/>
<path d="M0 0 C0.99 0 1.98 0 3 0 C3.66 2.64 4.32 5.28 5 8 C3 7 3 7 1 4 C0.67 2.68 0.34 1.36 0 0 Z " fill="#BEABC8" transform="translate(177,211)"/>
<path d="M0 0 C2.64 0 5.28 0 8 0 C7.01 1.485 7.01 1.485 6 3 C4.68 3 3.36 3 2 3 C2 2.34 2 1.68 2 1 C1.34 0.67 0.68 0.34 0 0 Z " fill="#878179" transform="translate(90,145)"/>
<path d="M0 0 C1.65 0 3.3 0 5 0 C5 0.66 5 1.32 5 2 C1 4 1 4 -3 3 C-2.01 3 -1.02 3 0 3 C0 2.01 0 1.02 0 0 Z " fill="#383838" transform="translate(243,4)"/>
</svg>
